M48
;Layer_Color=9474304
;FILE_FORMAT=2:5
INCH
;TYPE=PLATED
T01F00S00C0.01968
T02F00S00C0.02362
T03F00S00C0.03150
T04F00S00C0.03937
T05F00S00C0.04331
%
T01
X0369291Y0357874
X0421654Y0388189
T02
X0386599Y0390732
X0376599Y0400732
X0396599
T03
X0328189Y0330827
Y0340827
X0338189Y0335827
X0446201Y0361634
Y0371634
X0456201Y0366634
T04
X0317087Y0279528
X0376811Y0270669
X0386811
X0396811
X0429134Y0279528
X0439134
X0458504
X0468504
X0307087
X0377756Y0348425
X0386811
X0395866
X0387008Y0365197
Y0375197
T05
X0310341Y0407589
X0320184
X0330026
X0444199
X0454042
X0463884
M30
