G04*
G04 #@! TF.GenerationSoftware,Altium Limited,Altium Designer,25.0.2 (28)*
G04*
G04 Layer_Color=65535*
%FSLAX25Y25*%
%MOIN*%
G70*
G04*
G04 #@! TF.SameCoordinates,8CD03DE8-D389-49C6-8207-088A2C0857E2*
G04*
G04*
G04 #@! TF.FilePolarity,Positive*
G04*
G01*
G75*
%ADD10C,0.00787*%
%ADD11C,0.00394*%
%ADD12C,0.00591*%
%ADD13C,0.01181*%
G36*
X398299Y473829D02*
X398535Y473810D01*
X398593Y473790D01*
X398731Y473770D01*
X399015Y473721D01*
X399123Y473692D01*
X399202Y473672D01*
X399379Y473633D01*
X399516Y473574D01*
X399634Y473555D01*
X399810Y473476D01*
X399918Y473447D01*
X399948Y473417D01*
X400046Y473378D01*
X400125Y473358D01*
X400223Y473299D01*
X400321Y473260D01*
X400419Y473201D01*
X400517Y473162D01*
X400556Y473123D01*
X400733Y473025D01*
X400870Y472946D01*
X401008Y472848D01*
X401194Y472720D01*
X401263Y472671D01*
X401302Y472632D01*
X401341Y472612D01*
X401420Y472534D01*
X401459Y472514D01*
X401538Y472436D01*
X401577Y472416D01*
X401754Y472239D01*
X401793Y472220D01*
X401842Y472171D01*
X401862Y472131D01*
X402058Y471935D01*
X402078Y471896D01*
X402215Y471758D01*
X402235Y471719D01*
X402313Y471641D01*
X402372Y471543D01*
X402411Y471503D01*
X402470Y471405D01*
X402509Y471366D01*
X402529Y471307D01*
X402588Y471248D01*
X402667Y471111D01*
X402765Y470934D01*
X402902Y470640D01*
X402922Y470600D01*
X402961Y470561D01*
X402990Y470453D01*
X403079Y470247D01*
X403098Y470149D01*
X403138Y470110D01*
X403157Y470031D01*
X403187Y469904D01*
X403226Y469805D01*
X403255Y469697D01*
X403285Y469530D01*
X403334Y469364D01*
X403354Y469285D01*
X403373Y469010D01*
X403393Y468952D01*
X403432Y468618D01*
X403452Y467950D01*
X403471Y451050D01*
X403511Y450952D01*
X403550Y450814D01*
X403569Y450736D01*
X403609Y450697D01*
X403658Y450569D01*
X403707Y450500D01*
X403766Y450402D01*
X403825Y450343D01*
X403844Y450304D01*
X404070Y450078D01*
X404099Y450068D01*
X404109Y450039D01*
X404207Y449980D01*
X404247Y449941D01*
X404345Y449902D01*
X404384Y449862D01*
X404570Y449794D01*
X404600Y449764D01*
X404678Y449745D01*
X404806Y449715D01*
X404973Y449666D01*
X405169Y449646D01*
X405699Y449666D01*
X405836Y449725D01*
X405984Y449754D01*
X406111Y449823D01*
X406210Y449882D01*
X406347Y449961D01*
X406406Y450019D01*
X406445Y450039D01*
X406651Y450245D01*
X406671Y450284D01*
X406749Y450363D01*
X406769Y450422D01*
X406808Y450461D01*
X406887Y450598D01*
X406946Y450736D01*
X407024Y450913D01*
X407073Y451119D01*
X407103Y451227D01*
X407122Y451541D01*
X407142Y465281D01*
X407181Y465379D01*
X407220Y465516D01*
X407240Y465595D01*
X407299Y465693D01*
X407348Y465821D01*
X407397Y465870D01*
X407456Y465968D01*
X407554Y466105D01*
X407613Y466164D01*
X407633Y466203D01*
X407691Y466243D01*
X407711Y466282D01*
X407740Y466311D01*
X407780Y466331D01*
X407839Y466390D01*
X407878Y466409D01*
X408015Y466508D01*
X408113Y466567D01*
X408212Y466606D01*
X408388Y466684D01*
X408594Y466733D01*
X408702Y466763D01*
X408840Y466783D01*
X409331Y466763D01*
X409429Y466724D01*
X409507Y466704D01*
X409635Y466675D01*
X409841Y466586D01*
X409880Y466567D01*
X409919Y466527D01*
X410057Y466449D01*
X410233Y466311D01*
X410341Y466223D01*
X410400Y466164D01*
X410420Y466125D01*
X410498Y466046D01*
X410557Y465948D01*
X410597Y465909D01*
X410714Y465654D01*
X410734Y465615D01*
X410793Y465477D01*
X410822Y465310D01*
X410891Y465222D01*
Y461728D01*
Y461708D01*
X410871Y450893D01*
X410832Y450795D01*
X410813Y450716D01*
X410783Y450412D01*
X410763Y450333D01*
X410734Y450225D01*
X410714Y450147D01*
X410665Y449941D01*
X410616Y449813D01*
X410597Y449695D01*
X410518Y449519D01*
X410489Y449411D01*
X410439Y449323D01*
X410420Y449244D01*
X410165Y448753D01*
X410008Y448479D01*
X409968Y448439D01*
X409890Y448302D01*
X409694Y448027D01*
X409654Y447988D01*
X409635Y447949D01*
X409576Y447890D01*
X409556Y447850D01*
X409478Y447772D01*
X409458Y447733D01*
X409360Y447634D01*
X409340Y447595D01*
X409281Y447556D01*
X409262Y447517D01*
X409232Y447487D01*
X409193Y447468D01*
X409144Y447399D01*
X409026Y447301D01*
X408938Y447212D01*
X408899Y447193D01*
X408801Y447095D01*
X408761Y447075D01*
X408702Y447016D01*
X408663Y446996D01*
X408604Y446938D01*
X408565Y446918D01*
X408428Y446820D01*
X408329Y446761D01*
X408290Y446722D01*
X408231Y446702D01*
X408172Y446643D01*
X408045Y446594D01*
X407996Y446545D01*
X407917Y446525D01*
X407799Y446447D01*
X407721Y446427D01*
X407603Y446349D01*
X407495Y446319D01*
X407407Y446270D01*
X407328Y446251D01*
X407132Y446172D01*
X406975Y446133D01*
X406838Y446074D01*
X406651Y446044D01*
X406553Y446005D01*
X406474Y445986D01*
X406318Y445966D01*
X405964Y445907D01*
X405788Y445888D01*
X404914Y445878D01*
X404855Y445897D01*
X404620Y445917D01*
X404561Y445936D01*
X404364Y445956D01*
X404286Y445976D01*
X404129Y445995D01*
X404031Y446035D01*
X403952Y446054D01*
X403766Y446084D01*
X403667Y446123D01*
X403579Y446152D01*
X403471Y446182D01*
X403403Y446211D01*
X403304Y446251D01*
X403206Y446270D01*
X403108Y446329D01*
X403030Y446349D01*
X402814Y446447D01*
X402715Y446506D01*
X402382Y446682D01*
X402244Y446761D01*
X402205Y446800D01*
X402107Y446859D01*
X402068Y446898D01*
X401930Y446977D01*
X401822Y447065D01*
X401793Y447095D01*
X401754Y447114D01*
X401695Y447173D01*
X401656Y447193D01*
X401548Y447281D01*
X401518Y447311D01*
X401479Y447330D01*
X401459Y447369D01*
X401420Y447389D01*
X401096Y447713D01*
X401077Y447752D01*
X401018Y447791D01*
X400998Y447831D01*
X400919Y447909D01*
X400900Y447949D01*
X400811Y448057D01*
X400762Y448125D01*
X400723Y448164D01*
X400664Y448263D01*
X400625Y448302D01*
X400566Y448400D01*
X400488Y448537D01*
X400448Y448577D01*
X400409Y448675D01*
X400370Y448714D01*
X400331Y448812D01*
X400311Y448851D01*
X400272Y448891D01*
X400213Y449048D01*
X400134Y449224D01*
X400115Y449264D01*
X400056Y449401D01*
X400036Y449480D01*
X399977Y449617D01*
X399958Y449695D01*
X399909Y449823D01*
X399879Y449931D01*
X399830Y450137D01*
X399801Y450245D01*
X399781Y450324D01*
X399761Y450559D01*
X399742Y450618D01*
X399703Y450854D01*
X399683Y451109D01*
X399663Y468539D01*
X399644Y468598D01*
X399604Y468696D01*
X399585Y468834D01*
X399487Y469050D01*
X399428Y469148D01*
X399349Y469285D01*
X399310Y469324D01*
X399261Y469413D01*
X399222Y469432D01*
X399172Y469501D01*
X399065Y469609D01*
X399025Y469629D01*
X398947Y469707D01*
X398849Y469766D01*
X398711Y469845D01*
X398672Y469884D01*
X398564Y469913D01*
X398397Y469982D01*
X398319Y470002D01*
X398103Y470060D01*
X397906Y470080D01*
X397514Y470060D01*
X397416Y470021D01*
X397337Y470002D01*
X397210Y469972D01*
X397082Y469904D01*
X396984Y469864D01*
X396945Y469825D01*
X396807Y469746D01*
X396670Y469648D01*
X396631Y469609D01*
X396591Y469589D01*
X396552Y469530D01*
X396513Y469511D01*
X396483Y469482D01*
X396464Y469442D01*
X396385Y469364D01*
X396366Y469324D01*
X396307Y469266D01*
X396267Y469167D01*
X396209Y469108D01*
X396179Y469001D01*
X396110Y468873D01*
X396081Y468745D01*
X396032Y468578D01*
X396012Y468500D01*
X395993Y453876D01*
X395973Y453818D01*
X395934Y453680D01*
X395914Y453602D01*
X395885Y453494D01*
X395836Y453405D01*
X395786Y453278D01*
X395737Y453229D01*
X395718Y453150D01*
X395639Y453072D01*
X395580Y452974D01*
X395521Y452915D01*
X395502Y452875D01*
X395472Y452846D01*
X395443Y452836D01*
X395423Y452797D01*
X395394Y452767D01*
X395355Y452748D01*
X395276Y452669D01*
X395178Y452610D01*
X395139Y452571D01*
X394726Y452375D01*
X394609Y452355D01*
X394511Y452316D01*
X394432Y452296D01*
X394118Y452277D01*
X393765Y452296D01*
X393667Y452336D01*
X393529Y452375D01*
X393421Y452404D01*
X393392Y452434D01*
X393235Y452493D01*
X393196Y452532D01*
X393058Y452610D01*
X392813Y452797D01*
X392783Y452846D01*
X392744Y452866D01*
X392715Y452895D01*
X392695Y452934D01*
X392616Y453013D01*
X392558Y453111D01*
X392420Y453327D01*
X392401Y453405D01*
X392342Y453543D01*
X392322Y453621D01*
X392263Y453818D01*
X392244Y453955D01*
X392263Y468932D01*
X392283Y468991D01*
X392302Y469069D01*
X392322Y469207D01*
X392371Y469491D01*
X392401Y469580D01*
X392420Y469658D01*
X392459Y469835D01*
X392499Y469933D01*
X392518Y470011D01*
X392616Y470267D01*
X392646Y470375D01*
X392675Y470404D01*
X392715Y470502D01*
X392734Y470581D01*
X392774Y470620D01*
X392813Y470718D01*
X392950Y470973D01*
X393048Y471150D01*
X393088Y471189D01*
X393107Y471268D01*
X393186Y471346D01*
X393245Y471444D01*
X393343Y471582D01*
X393431Y471690D01*
X393460Y471719D01*
X393480Y471758D01*
X393539Y471817D01*
X393559Y471857D01*
X393657Y471955D01*
X393676Y471994D01*
X394040Y472357D01*
X394079Y472377D01*
X394236Y472534D01*
X394275Y472553D01*
X394354Y472632D01*
X394393Y472651D01*
X394452Y472710D01*
X394550Y472769D01*
X394589Y472809D01*
X394687Y472867D01*
X394726Y472907D01*
X394785Y472926D01*
X394844Y472985D01*
X394942Y473025D01*
X394982Y473064D01*
X395158Y473162D01*
X395256Y473201D01*
X395296Y473221D01*
X395335Y473260D01*
X395492Y473319D01*
X395531Y473358D01*
X395610Y473378D01*
X395737Y473427D01*
X395767Y473456D01*
X395895Y473486D01*
X396061Y473555D01*
X396140Y473574D01*
X396267Y473623D01*
X396375Y473653D01*
X396582Y473702D01*
X396689Y473731D01*
X396768Y473751D01*
X397013Y473780D01*
X397131Y473800D01*
X397229Y473819D01*
X397426Y473839D01*
X398240Y473849D01*
X398299Y473829D01*
D02*
G37*
G36*
X383744Y484674D02*
X383754Y484645D01*
X383891Y484606D01*
X384176Y484576D01*
X384255Y484556D01*
X384421Y484507D01*
X384588Y484478D01*
X384686Y484439D01*
X384775Y484409D01*
X384932Y484370D01*
X384971Y484331D01*
X385099Y484301D01*
X385226Y484233D01*
X385305Y484213D01*
X385599Y484056D01*
X385697Y484017D01*
X385736Y483997D01*
X385776Y483958D01*
X386051Y483801D01*
X386090Y483762D01*
X386188Y483703D01*
X386227Y483663D01*
X386325Y483604D01*
X386384Y483546D01*
X386423Y483526D01*
X386463Y483487D01*
X386502Y483467D01*
X386610Y483379D01*
X386738Y483251D01*
X386767Y483241D01*
X386787Y483202D01*
X386904Y483104D01*
X386983Y483025D01*
X386993Y482996D01*
X387032Y482976D01*
X387081Y482908D01*
X387238Y482751D01*
X387297Y482653D01*
X387336Y482613D01*
X387356Y482574D01*
X387434Y482495D01*
X387454Y482456D01*
X387513Y482397D01*
X387591Y482260D01*
X387690Y482123D01*
X387768Y481985D01*
X387866Y481808D01*
X388102Y481318D01*
X388200Y481102D01*
X388219Y481023D01*
X388278Y480886D01*
X388298Y480807D01*
X388357Y480670D01*
X388377Y480591D01*
X388406Y480444D01*
X388455Y480277D01*
X388504Y479934D01*
X388524Y479836D01*
X388553Y479571D01*
X388573Y478786D01*
X388593Y441687D01*
X388632Y441589D01*
X388671Y441432D01*
X388769Y441216D01*
X388789Y441177D01*
X388848Y441118D01*
X388867Y441039D01*
X388946Y440961D01*
X388966Y440921D01*
X389024Y440862D01*
X389044Y440823D01*
X389270Y440597D01*
X389309Y440578D01*
X389368Y440519D01*
X389505Y440440D01*
X389603Y440401D01*
X389643Y440381D01*
X389780Y440323D01*
X389859Y440303D01*
X390055Y440244D01*
X390251Y440225D01*
X390722Y440244D01*
X390860Y440303D01*
X391026Y440333D01*
X391154Y440401D01*
X391282Y440450D01*
X391331Y440499D01*
X391409Y440519D01*
X391488Y440597D01*
X391586Y440656D01*
X391723Y440794D01*
X391753Y440804D01*
X391772Y440843D01*
X391870Y440941D01*
X391890Y440980D01*
X391929Y441019D01*
X392008Y441157D01*
X392067Y441294D01*
X392087Y441333D01*
X392145Y441471D01*
X392175Y441618D01*
X392204Y441726D01*
X392224Y441805D01*
X392244Y442295D01*
X392263Y445142D01*
X392322Y445279D01*
X392361Y445436D01*
X392420Y445534D01*
X392440Y445613D01*
X392518Y445730D01*
X392538Y445770D01*
X392675Y445946D01*
X392764Y446054D01*
X392881Y446172D01*
X392921Y446192D01*
X392980Y446251D01*
X393019Y446270D01*
X393137Y446349D01*
X393176Y446368D01*
X393215Y446408D01*
X393313Y446447D01*
X393392Y446466D01*
X393431Y446506D01*
X393588Y446545D01*
X393804Y446604D01*
X393941Y446624D01*
X394471Y446604D01*
X394569Y446565D01*
X394648Y446545D01*
X394776Y446516D01*
X394903Y446447D01*
X394982Y446427D01*
X395021Y446388D01*
X395060Y446368D01*
X395158Y446310D01*
X395198Y446270D01*
X395296Y446211D01*
X395355Y446152D01*
X395394Y446133D01*
X395541Y445986D01*
X395561Y445946D01*
X395620Y445888D01*
X395679Y445789D01*
X395718Y445750D01*
X395895Y445377D01*
X395914Y445299D01*
X395944Y445171D01*
X395973Y445063D01*
X395993Y444984D01*
X396012Y444494D01*
X395993Y441530D01*
X395973Y441471D01*
X395944Y441285D01*
X395914Y441019D01*
X395865Y440794D01*
X395836Y440705D01*
X395816Y440568D01*
X395767Y440440D01*
X395737Y440333D01*
X395698Y440175D01*
X395639Y440038D01*
X395590Y439910D01*
X395561Y439881D01*
X395541Y439803D01*
X395502Y439704D01*
X395306Y439331D01*
X395227Y439194D01*
X395188Y439155D01*
X395031Y438880D01*
X394972Y438821D01*
X394913Y438723D01*
X394874Y438684D01*
X394854Y438644D01*
X394776Y438566D01*
X394756Y438527D01*
X394697Y438468D01*
X394677Y438428D01*
X394501Y438252D01*
X394481Y438212D01*
X394236Y437967D01*
X394197Y437948D01*
X394118Y437869D01*
X394079Y437849D01*
X394000Y437771D01*
X393961Y437751D01*
X393882Y437673D01*
X393843Y437653D01*
X393784Y437594D01*
X393686Y437535D01*
X393647Y437496D01*
X393549Y437437D01*
X393333Y437300D01*
X393235Y437241D01*
X393097Y437162D01*
X392764Y437005D01*
X392724Y436986D01*
X392587Y436927D01*
X392371Y436829D01*
X392273Y436809D01*
X392136Y436750D01*
X392057Y436731D01*
X391929Y436682D01*
X391822Y436652D01*
X391655Y436623D01*
X391557Y436583D01*
X391478Y436564D01*
X391282Y436544D01*
X391125Y436524D01*
X391026Y436485D01*
X391017Y436456D01*
X389672Y436466D01*
X389662Y436495D01*
X389505Y436534D01*
X389240Y436564D01*
X389162Y436583D01*
X388995Y436632D01*
X388858Y436652D01*
X388661Y436731D01*
X388543Y436750D01*
X388367Y436829D01*
X388288Y436848D01*
X388112Y436927D01*
X388072Y436946D01*
X387974Y437005D01*
X387847Y437054D01*
X387817Y437084D01*
X387464Y437280D01*
X387169Y437476D01*
X386924Y437663D01*
X386895Y437692D01*
X386855Y437712D01*
X386777Y437790D01*
X386738Y437810D01*
X386580Y437967D01*
X386541Y437987D01*
X386394Y438134D01*
X386384Y438164D01*
X386345Y438183D01*
X386296Y438252D01*
X386198Y438350D01*
X386178Y438389D01*
X386100Y438468D01*
X386080Y438507D01*
X386021Y438566D01*
X386001Y438605D01*
X385923Y438684D01*
X385903Y438723D01*
X385844Y438782D01*
X385766Y438919D01*
X385668Y439057D01*
X385511Y439331D01*
X385413Y439508D01*
X385354Y439645D01*
X385334Y439685D01*
X385275Y439783D01*
X385256Y439861D01*
X385177Y440038D01*
X385079Y440293D01*
X385050Y440421D01*
X385000Y440529D01*
X384971Y440696D01*
X384922Y440862D01*
X384902Y440941D01*
X384873Y441167D01*
X384834Y441402D01*
X384804Y441667D01*
X384785Y479473D01*
X384726Y479610D01*
X384686Y479767D01*
X384647Y479806D01*
X384608Y479904D01*
X384549Y480003D01*
X384451Y480179D01*
X384363Y480287D01*
X384313Y480356D01*
X384107Y480562D01*
X384068Y480582D01*
X384009Y480641D01*
X383911Y480699D01*
X383656Y480817D01*
X383528Y480847D01*
X383420Y480876D01*
X383342Y480896D01*
X383145Y480915D01*
X382714Y480896D01*
X382615Y480856D01*
X382488Y480827D01*
X382409Y480807D01*
X382203Y480719D01*
X382105Y480660D01*
X381968Y480582D01*
X381928Y480542D01*
X381830Y480483D01*
X381791Y480444D01*
X381752Y480425D01*
X381605Y480277D01*
X381585Y480238D01*
X381526Y480179D01*
X381448Y480042D01*
X381408Y480003D01*
X381379Y479895D01*
X381349Y479865D01*
X381310Y479728D01*
X381251Y479512D01*
X381232Y479433D01*
X381212Y478943D01*
X381192Y450834D01*
X381173Y450775D01*
X381143Y450589D01*
X381124Y450432D01*
X381104Y450294D01*
X381094Y450284D01*
X381075Y450167D01*
X381035Y450068D01*
X381016Y449911D01*
X380957Y449774D01*
X380937Y449695D01*
X380908Y449587D01*
X380859Y449480D01*
X380839Y449401D01*
X380741Y449185D01*
X380721Y449126D01*
X380584Y448871D01*
X380545Y448773D01*
X380525Y448734D01*
X380486Y448694D01*
X380447Y448596D01*
X380407Y448557D01*
X380388Y448518D01*
X380329Y448420D01*
X380250Y448282D01*
X380191Y448223D01*
X380132Y448125D01*
X380093Y448086D01*
X380073Y448047D01*
X380015Y447988D01*
X379995Y447949D01*
X379917Y447870D01*
X379897Y447831D01*
X379818Y447752D01*
X379799Y447713D01*
X379377Y447291D01*
X379337Y447271D01*
X379239Y447173D01*
X379200Y447154D01*
X379141Y447095D01*
X379102Y447075D01*
X379043Y447016D01*
X379004Y446996D01*
X378955Y446967D01*
X378945Y446938D01*
X378906Y446918D01*
X378768Y446820D01*
X378670Y446761D01*
X378454Y446624D01*
X378395Y446604D01*
X378356Y446565D01*
X378258Y446525D01*
X378219Y446506D01*
X378179Y446466D01*
X377993Y446398D01*
X377963Y446368D01*
X377806Y446310D01*
X377669Y446251D01*
X377561Y446221D01*
X377453Y446172D01*
X377375Y446152D01*
X377247Y446103D01*
X377139Y446074D01*
X376933Y446025D01*
X376825Y445995D01*
X376746Y445976D01*
X376521Y445946D01*
X376403Y445927D01*
X376305Y445907D01*
X376148Y445888D01*
X375176Y445878D01*
X375117Y445897D01*
X374901Y445917D01*
X374842Y445936D01*
X374568Y445976D01*
X374420Y446005D01*
X374293Y446054D01*
X374106Y446084D01*
X373998Y446133D01*
X373920Y446152D01*
X373812Y446182D01*
X373704Y446231D01*
X373625Y446251D01*
X373410Y446349D01*
X373331Y446368D01*
X373272Y446427D01*
X373164Y446457D01*
X373095Y446506D01*
X372997Y446545D01*
X372958Y446565D01*
X372899Y446624D01*
X372821Y446643D01*
X372762Y446702D01*
X372624Y446781D01*
X372350Y446977D01*
X372104Y447163D01*
X372075Y447193D01*
X372036Y447212D01*
X371937Y447311D01*
X371908Y447320D01*
X371888Y447360D01*
X371859Y447389D01*
X371820Y447409D01*
X371790Y447438D01*
X371780Y447468D01*
X371741Y447487D01*
X371614Y447615D01*
X371594Y447654D01*
X371437Y447811D01*
X371417Y447850D01*
X371339Y447929D01*
X371319Y447968D01*
X371260Y448027D01*
X371240Y448066D01*
X371152Y448174D01*
X371083Y448282D01*
X371044Y448321D01*
X370985Y448420D01*
X370828Y448694D01*
X370750Y448812D01*
X370730Y448871D01*
X370573Y449205D01*
X370475Y449421D01*
X370455Y449519D01*
X370396Y449656D01*
X370377Y449735D01*
X370318Y449872D01*
X370298Y449951D01*
X370279Y450108D01*
X370239Y450206D01*
X370200Y450363D01*
X370171Y450647D01*
X370151Y450726D01*
X370131Y450824D01*
X370112Y451138D01*
X370092Y468490D01*
X370073Y468608D01*
X370023Y468775D01*
X369984Y468932D01*
X369945Y468971D01*
X369886Y469128D01*
X369847Y469167D01*
X369768Y469305D01*
X369729Y469344D01*
X369709Y469383D01*
X369631Y469462D01*
X369611Y469501D01*
X369543Y469550D01*
X369405Y469688D01*
X369209Y469805D01*
X369170Y469825D01*
X369052Y469904D01*
X368954Y469923D01*
X368915Y469962D01*
X368836Y469982D01*
X368630Y470031D01*
X368551Y470051D01*
X368286Y470080D01*
X367933Y470060D01*
X367874Y470041D01*
X367737Y470002D01*
X367658Y469982D01*
X367482Y469904D01*
X367383Y469845D01*
X367246Y469766D01*
X367207Y469727D01*
X367167Y469707D01*
X367059Y469619D01*
X366824Y469383D01*
X366765Y469285D01*
X366726Y469246D01*
X366647Y469108D01*
X366608Y469010D01*
X366530Y468834D01*
X366500Y468706D01*
X366451Y468539D01*
X366431Y468402D01*
X366412Y454014D01*
X366372Y453916D01*
X366314Y453680D01*
X366117Y453307D01*
X366058Y453248D01*
X366000Y453150D01*
X365941Y453091D01*
X365921Y453052D01*
X365862Y453013D01*
X365843Y452974D01*
X365813Y452944D01*
X365774Y452924D01*
X365715Y452866D01*
X365676Y452846D01*
X365538Y452748D01*
X365440Y452689D01*
X365342Y452650D01*
X365165Y452571D01*
X365038Y452542D01*
X364940Y452502D01*
X364842Y452483D01*
X364262Y452473D01*
X364204Y452493D01*
X364096Y452522D01*
X364007Y452552D01*
X363880Y452581D01*
X363752Y452650D01*
X363673Y452669D01*
X363615Y452728D01*
X363477Y452807D01*
X363340Y452905D01*
X363301Y452944D01*
X363261Y452964D01*
X363232Y452993D01*
X363222Y453023D01*
X363183Y453042D01*
X363134Y453091D01*
X363114Y453130D01*
X363055Y453189D01*
X363036Y453229D01*
X362937Y453366D01*
X362879Y453464D01*
X362839Y453562D01*
X362761Y453739D01*
X362731Y453886D01*
X362663Y453994D01*
X362682Y468893D01*
X362741Y469030D01*
X362771Y469354D01*
X362790Y469432D01*
X362839Y469599D01*
X362859Y469737D01*
X362908Y469864D01*
X362937Y469953D01*
X362967Y470060D01*
X363036Y470227D01*
X363065Y470335D01*
X363114Y470424D01*
X363163Y470551D01*
X363232Y470679D01*
X363251Y470757D01*
X363291Y470797D01*
X363330Y470895D01*
X363350Y470934D01*
X363409Y470993D01*
X363428Y471071D01*
X363487Y471130D01*
X363585Y471307D01*
X363683Y471444D01*
X363870Y471690D01*
X363929Y471788D01*
X363958Y471798D01*
X363978Y471837D01*
X364096Y471955D01*
X364105Y471984D01*
X364135Y471994D01*
X364154Y472033D01*
X364577Y472455D01*
X364616Y472475D01*
X364694Y472553D01*
X364734Y472573D01*
X364812Y472651D01*
X364842Y472661D01*
X364851Y472691D01*
X364891Y472710D01*
X364999Y472799D01*
X365107Y472867D01*
X365303Y473005D01*
X365362Y473025D01*
X365421Y473083D01*
X365519Y473123D01*
X365636Y473201D01*
X365715Y473221D01*
X365774Y473280D01*
X365872Y473299D01*
X365911Y473339D01*
X366009Y473378D01*
X366137Y473427D01*
X366166Y473456D01*
X366294Y473486D01*
X366461Y473555D01*
X366539Y473574D01*
X366667Y473623D01*
X366755Y473653D01*
X366893Y473672D01*
X367148Y473751D01*
X367413Y473780D01*
X367491Y473800D01*
X367589Y473819D01*
X367805Y473839D01*
X368640Y473849D01*
X368699Y473829D01*
X368934Y473810D01*
X368993Y473790D01*
X369327Y473751D01*
X369405Y473731D01*
X369601Y473672D01*
X369808Y473623D01*
X369935Y473574D01*
X370053Y473555D01*
X370230Y473476D01*
X370338Y473447D01*
X370367Y473417D01*
X370553Y473348D01*
X370642Y473299D01*
X370769Y473250D01*
X370799Y473221D01*
X370897Y473181D01*
X370936Y473162D01*
X370975Y473123D01*
X371103Y473074D01*
X371152Y473025D01*
X371250Y472985D01*
X371309Y472926D01*
X371407Y472887D01*
X371466Y472828D01*
X371564Y472769D01*
X371604Y472730D01*
X371702Y472671D01*
X371741Y472632D01*
X371780Y472612D01*
X371859Y472534D01*
X371898Y472514D01*
X371977Y472436D01*
X372016Y472416D01*
X372114Y472318D01*
X372153Y472298D01*
X372193Y472239D01*
X372232Y472220D01*
X372261Y472190D01*
X372281Y472151D01*
X372340Y472112D01*
X372359Y472073D01*
X372536Y471896D01*
X372556Y471857D01*
X372634Y471778D01*
X372654Y471739D01*
X372732Y471660D01*
X372791Y471562D01*
X372831Y471523D01*
X372889Y471425D01*
X372929Y471385D01*
X372988Y471287D01*
X373066Y471150D01*
X373105Y471111D01*
X373145Y471012D01*
X373184Y470973D01*
X373223Y470875D01*
X373282Y470777D01*
X373321Y470679D01*
X373400Y470502D01*
X373498Y470286D01*
X373527Y470178D01*
X373576Y470070D01*
X373606Y469943D01*
X373645Y469845D01*
X373675Y469737D01*
X373694Y469599D01*
X373753Y469403D01*
X373773Y469324D01*
X373802Y469079D01*
X373841Y468824D01*
X373861Y468647D01*
X373881Y451197D01*
X373900Y451079D01*
X373949Y450913D01*
X373969Y450834D01*
X374008Y450736D01*
X374126Y450520D01*
X374195Y450392D01*
X374224Y450383D01*
X374244Y450343D01*
X374332Y450235D01*
X374548Y450019D01*
X374587Y450000D01*
X374646Y449941D01*
X374783Y449862D01*
X375039Y449745D01*
X375117Y449725D01*
X375215Y449686D01*
X375294Y449666D01*
X375431Y449646D01*
X376020Y449666D01*
X376158Y449725D01*
X376305Y449754D01*
X376432Y449823D01*
X376531Y449862D01*
X376570Y449902D01*
X376707Y449980D01*
X376746Y450019D01*
X376786Y450039D01*
X376864Y450117D01*
X376904Y450137D01*
X376923Y450176D01*
X376962Y450196D01*
X376992Y450225D01*
X377011Y450265D01*
X377090Y450343D01*
X377110Y450383D01*
X377168Y450441D01*
X377227Y450539D01*
X377267Y450638D01*
X377345Y450814D01*
X377365Y450893D01*
X377424Y451089D01*
X377443Y451227D01*
X377463Y479689D01*
X377483Y479747D01*
X377512Y479914D01*
X377541Y480179D01*
X377561Y480258D01*
X377581Y480375D01*
X377620Y480474D01*
X377649Y480641D01*
X377669Y480719D01*
X377718Y480827D01*
X377767Y481033D01*
X377797Y481063D01*
X377816Y481141D01*
X377865Y481269D01*
X377914Y481377D01*
X377963Y481504D01*
X377993Y481534D01*
X378042Y481661D01*
X378111Y481789D01*
X378169Y481887D01*
X378248Y482024D01*
X378287Y482064D01*
X378307Y482142D01*
X378366Y482201D01*
X378425Y482299D01*
X378464Y482338D01*
X378484Y482378D01*
X378572Y482486D01*
X378641Y482594D01*
X378680Y482633D01*
X378699Y482672D01*
X378778Y482751D01*
X378798Y482790D01*
X378856Y482829D01*
X378876Y482868D01*
X379279Y483271D01*
X379318Y483290D01*
X379396Y483369D01*
X379436Y483389D01*
X379514Y483467D01*
X379553Y483487D01*
X379612Y483546D01*
X379710Y483604D01*
X379750Y483644D01*
X379848Y483703D01*
X379887Y483742D01*
X379946Y483762D01*
X380005Y483820D01*
X380103Y483860D01*
X380142Y483899D01*
X380319Y483997D01*
X380417Y484036D01*
X380456Y484056D01*
X380554Y484115D01*
X380633Y484134D01*
X380751Y484213D01*
X380849Y484233D01*
X381026Y484311D01*
X381134Y484341D01*
X381241Y484390D01*
X381320Y484409D01*
X381428Y484439D01*
X381556Y484488D01*
X381742Y484517D01*
X381909Y484566D01*
X382046Y484586D01*
X382272Y484615D01*
X382350Y484635D01*
X382419Y484664D01*
X382478Y484684D01*
X383744Y484674D01*
D02*
G37*
D10*
X440571Y357185D02*
G03*
X440571Y376083I7996J9449D01*
G01*
X440656Y401684D02*
G03*
X440656Y401684I-394J0D01*
G01*
X306798D02*
G03*
X306798Y401684I-394J0D01*
G01*
X322559Y326378D02*
G03*
X322559Y345276I7996J9449D01*
G01*
X440571Y357185D02*
Y376083D01*
X471279Y319783D02*
Y326870D01*
Y304035D02*
Y311122D01*
X451988Y304035D02*
X471279D01*
X446476Y309547D02*
X451988Y304035D01*
X446476Y309547D02*
Y310728D01*
Y320177D02*
Y321358D01*
X452776Y326870D02*
X471279D01*
X446476Y321358D02*
X451988Y326870D01*
X452776D01*
X441358Y321358D02*
X444508D01*
X442933Y319783D02*
Y322933D01*
X469790Y405621D02*
X471759D01*
X479633D01*
Y456802D01*
X428451D02*
X479633D01*
X428451Y405621D02*
X438294D01*
X428451D02*
Y456802D01*
X294593Y405621D02*
Y456802D01*
Y405621D02*
X304436D01*
X294593Y456802D02*
X345774D01*
Y405621D02*
Y456802D01*
X337900Y405621D02*
X345774D01*
X335932D02*
X337900D01*
X425591Y308268D02*
X432677D01*
X424803Y292913D02*
Y301575D01*
X433465Y292913D02*
Y301575D01*
X322559Y326378D02*
Y345276D01*
X312272Y314174D02*
Y318110D01*
X314240D01*
X314896Y317454D01*
Y316142D01*
X314240Y315486D01*
X312272D01*
X313584D02*
X314896Y314174D01*
X316208D02*
X317519D01*
X316863D01*
Y318110D01*
X316208Y317454D01*
X319487Y314174D02*
X320799D01*
X320143D01*
Y318110D01*
X319487Y317454D01*
X343112Y313387D02*
Y317322D01*
X345080D01*
X345736Y316666D01*
Y315354D01*
X345080Y314698D01*
X343112D01*
X344424D02*
X345736Y313387D01*
X347048D02*
X348359D01*
X347704D01*
Y317322D01*
X347048Y316666D01*
X350327D02*
X350983Y317322D01*
X352295D01*
X352951Y316666D01*
Y314042D01*
X352295Y313387D01*
X350983D01*
X350327Y314042D01*
Y316666D01*
X296720Y309056D02*
Y312991D01*
X298688D01*
X299344Y312335D01*
Y311024D01*
X298688Y310368D01*
X296720D01*
X298032D02*
X299344Y309056D01*
X300656Y312335D02*
X301312Y312991D01*
X302624D01*
X303280Y312335D01*
Y311680D01*
X302624Y311024D01*
X303280Y310368D01*
Y309712D01*
X302624Y309056D01*
X301312D01*
X300656Y309712D01*
Y310368D01*
X301312Y311024D01*
X300656Y311680D01*
Y312335D01*
X301312Y311024D02*
X302624D01*
X344358Y357087D02*
Y361023D01*
X346326D01*
X346982Y360367D01*
Y359055D01*
X346326Y358399D01*
X344358D01*
X345670D02*
X346982Y357087D01*
X348294Y361023D02*
X350918D01*
Y360367D01*
X348294Y357743D01*
Y357087D01*
X409777Y345145D02*
Y347769D01*
X409121Y348425D01*
X407809D01*
X407153Y347769D01*
Y345145D01*
X407809Y344489D01*
X409121D01*
X408465Y345801D02*
X409777Y344489D01*
X409121D02*
X409777Y345145D01*
X413713Y344489D02*
X411089D01*
X413713Y347113D01*
Y347769D01*
X413057Y348425D01*
X411745D01*
X411089Y347769D01*
X325328Y351444D02*
Y354068D01*
X324672Y354724D01*
X323360D01*
X322705Y354068D01*
Y351444D01*
X323360Y350788D01*
X324672D01*
X324016Y352100D02*
X325328Y350788D01*
X324672D02*
X325328Y351444D01*
X326640Y354068D02*
X327296Y354724D01*
X328608D01*
X329264Y354068D01*
Y353412D01*
X328608Y352756D01*
X327952D01*
X328608D01*
X329264Y352100D01*
Y351444D01*
X328608Y350788D01*
X327296D01*
X326640Y351444D01*
X426510Y314173D02*
Y310237D01*
X428478D01*
X429134Y310893D01*
Y313517D01*
X428478Y314173D01*
X426510D01*
X430446Y310237D02*
X431758D01*
X431102D01*
Y314173D01*
X430446Y313517D01*
X307218Y338714D02*
X306562Y339370D01*
X305250D01*
X304594Y338714D01*
Y336090D01*
X305250Y335434D01*
X306562D01*
X307218Y336090D01*
X311154Y339370D02*
X309842Y338714D01*
X308530Y337402D01*
Y336090D01*
X309186Y335434D01*
X310498D01*
X311154Y336090D01*
Y336746D01*
X310498Y337402D01*
X308530D01*
X368635Y378871D02*
X367979Y379527D01*
X366668D01*
X366012Y378871D01*
Y376247D01*
X366668Y375591D01*
X367979D01*
X368635Y376247D01*
X372571Y379527D02*
X369947D01*
Y377559D01*
X371259Y378215D01*
X371915D01*
X372571Y377559D01*
Y376247D01*
X371915Y375591D01*
X370603D01*
X369947Y376247D01*
X440702Y349245D02*
X440046Y349901D01*
X438734D01*
X438078Y349245D01*
Y346621D01*
X438734Y345965D01*
X440046D01*
X440702Y346621D01*
X443982Y345965D02*
Y349901D01*
X442014Y347933D01*
X444638D01*
X476791Y325623D02*
X476135Y326279D01*
X474824D01*
X474167Y325623D01*
Y322999D01*
X474824Y322343D01*
X476135D01*
X476791Y322999D01*
X478103Y322343D02*
X479415D01*
X478759D01*
Y326279D01*
X478103Y325623D01*
X477449Y335138D02*
Y339074D01*
X479416D01*
X480072Y338418D01*
Y337106D01*
X479416Y336450D01*
X477449D01*
X478760D02*
X480072Y335138D01*
X484008Y339074D02*
X482696Y338418D01*
X481384Y337106D01*
Y335794D01*
X482040Y335138D01*
X483352D01*
X484008Y335794D01*
Y336450D01*
X483352Y337106D01*
X481384D01*
X296720Y296851D02*
Y300787D01*
X298688D01*
X299344Y300131D01*
Y298819D01*
X298688Y298163D01*
X296720D01*
X298032D02*
X299344Y296851D01*
X303280Y300787D02*
X300656D01*
Y298819D01*
X301968Y299475D01*
X302624D01*
X303280Y298819D01*
Y297507D01*
X302624Y296851D01*
X301312D01*
X300656Y297507D01*
X471543Y359745D02*
Y363681D01*
X473511D01*
X474167Y363024D01*
Y361713D01*
X473511Y361057D01*
X471543D01*
X472855D02*
X474167Y359745D01*
X477447D02*
Y363681D01*
X475479Y361713D01*
X478103D01*
X455382Y390552D02*
Y394488D01*
X457349D01*
X458006Y393832D01*
Y392520D01*
X457349Y391864D01*
X455382D01*
X456694D02*
X458006Y390552D01*
X459317Y393832D02*
X459973Y394488D01*
X461285D01*
X461941Y393832D01*
Y393176D01*
X461285Y392520D01*
X460629D01*
X461285D01*
X461941Y391864D01*
Y391208D01*
X461285Y390552D01*
X459973D01*
X459317Y391208D01*
X438734Y335138D02*
Y339074D01*
X440702D01*
X441358Y338418D01*
Y337106D01*
X440702Y336450D01*
X438734D01*
X440046D02*
X441358Y335138D01*
X442670D02*
X443982D01*
X443326D01*
Y339074D01*
X442670Y338418D01*
X454724Y381365D02*
Y383989D01*
X454069Y384645D01*
X452757D01*
X452101Y383989D01*
Y381365D01*
X452757Y380709D01*
X454069D01*
X453412Y382021D02*
X454724Y380709D01*
X454069D02*
X454724Y381365D01*
X456036Y380709D02*
X457348D01*
X456692D01*
Y384645D01*
X456036Y383989D01*
X474147Y380839D02*
X473491Y381495D01*
X472179D01*
X471523Y380839D01*
Y378216D01*
X472179Y377560D01*
X473491D01*
X474147Y378216D01*
X475459Y380839D02*
X476115Y381495D01*
X477427D01*
X478083Y380839D01*
Y380184D01*
X477427Y379528D01*
X476771D01*
X477427D01*
X478083Y378872D01*
Y378216D01*
X477427Y377560D01*
X476115D01*
X475459Y378216D01*
X431234Y387926D02*
X430578Y388582D01*
X429266D01*
X428610Y387926D01*
Y385302D01*
X429266Y384646D01*
X430578D01*
X431234Y385302D01*
X435170Y384646D02*
X432546D01*
X435170Y387270D01*
Y387926D01*
X434514Y388582D01*
X433202D01*
X432546Y387926D01*
D11*
X463799Y386122D02*
X470098D01*
X463799Y372737D02*
X470098D01*
Y386122D01*
X463799Y372737D02*
Y386122D01*
X464174Y395669D02*
X477559D01*
X464174Y389370D02*
X477559D01*
X464174D02*
Y395669D01*
X477559Y389370D02*
Y395669D01*
X446476Y333957D02*
X459862D01*
X446476Y340256D02*
X459862D01*
Y333957D02*
Y340256D01*
X446476Y333957D02*
Y340256D01*
X459862Y344783D02*
Y351083D01*
X446477Y344783D02*
Y351083D01*
Y344783D02*
X459862D01*
X446477Y351083D02*
X459862D01*
X463799Y355020D02*
Y368406D01*
X470098Y355020D02*
Y368406D01*
X463799Y355020D02*
X470098D01*
X463799Y368406D02*
X470098D01*
X462224Y333957D02*
X475610D01*
X462224Y340256D02*
X475610D01*
Y333957D02*
Y340256D01*
X462224Y333957D02*
Y340256D01*
X372441Y360236D02*
Y373622D01*
X366142Y360236D02*
Y373622D01*
X372441D01*
X366142Y360236D02*
X372441D01*
X344488Y355118D02*
X350787D01*
X344488Y341733D02*
X350787D01*
Y355118D01*
X344488Y341733D02*
Y355118D01*
X304724Y320079D02*
Y333465D01*
X311024Y320079D02*
Y333465D01*
X304724Y320079D02*
X311024D01*
X304724Y333465D02*
X311024D01*
X304724Y304331D02*
X311024D01*
X304724Y317716D02*
X311024D01*
X304724Y304331D02*
Y317716D01*
X311024Y304331D02*
Y317716D01*
X312992Y333465D02*
X319291D01*
X312992Y320079D02*
X319291D01*
Y333465D01*
X312992Y320079D02*
Y333465D01*
X344488Y332283D02*
X350787D01*
X344488Y318898D02*
X350787D01*
Y332283D01*
X344488Y318898D02*
Y332283D01*
X428740Y369291D02*
X435039D01*
X428740Y382677D02*
X435039D01*
X428740Y369291D02*
Y382677D01*
X435039Y369291D02*
Y382677D01*
X318504Y295669D02*
Y301969D01*
X305118Y295669D02*
Y301969D01*
Y295669D02*
X318504D01*
X305118Y301969D02*
X318504D01*
D12*
X369094Y349606D02*
X371063D01*
X369094Y279528D02*
Y349606D01*
Y279528D02*
X404528D01*
Y349606D01*
X402559D02*
X404528D01*
D13*
X437505Y465746D02*
Y461810D01*
X439473Y459842D01*
X441441Y461810D01*
Y465746D01*
X444393Y459842D02*
X446361D01*
X447345Y460826D01*
Y462794D01*
X446361Y463778D01*
X444393D01*
X443409Y462794D01*
Y460826D01*
X444393Y459842D01*
X449312D02*
X451280D01*
X450296D01*
Y465746D01*
X449312D01*
X454232Y463778D02*
Y460826D01*
X455216Y459842D01*
X458168D01*
Y463778D01*
X460136Y459842D02*
Y463778D01*
X461120D01*
X462104Y462794D01*
Y459842D01*
Y462794D01*
X463088Y463778D01*
X464072Y462794D01*
Y459842D01*
X468991D02*
X467023D01*
X466039Y460826D01*
Y462794D01*
X467023Y463778D01*
X468991D01*
X469975Y462794D01*
Y461810D01*
X466039D01*
X306599Y465746D02*
Y459842D01*
X309551D01*
X310535Y460826D01*
Y464762D01*
X309551Y465746D01*
X306599D01*
X312502Y463778D02*
Y459842D01*
Y461810D01*
X313486Y462794D01*
X314470Y463778D01*
X315454D01*
X318406Y459842D02*
X320374D01*
X319390D01*
Y463778D01*
X318406D01*
X323326D02*
X325293Y459842D01*
X327261Y463778D01*
X332181Y459842D02*
X330213D01*
X329229Y460826D01*
Y462794D01*
X330213Y463778D01*
X332181D01*
X333165Y462794D01*
Y461810D01*
X329229D01*
M02*
