G04*
G04 #@! TF.GenerationSoftware,Altium Limited,Altium Designer,25.0.2 (28)*
G04*
G04 Layer_Color=16711935*
%FSLAX25Y25*%
%MOIN*%
G70*
G04*
G04 #@! TF.SameCoordinates,8CD03DE8-D389-49C6-8207-088A2C0857E2*
G04*
G04*
G04 #@! TF.FilePolarity,Negative*
G04*
G01*
G75*
%ADD22C,0.08268*%
%ADD23R,0.08268X0.08268*%
%ADD24C,0.05906*%
%ADD25R,0.07480X0.07480*%
%ADD26C,0.07480*%
%ADD27R,0.12205X0.10236*%
%ADD28O,0.07480X0.08661*%
%ADD29R,0.07480X0.08661*%
%ADD30R,0.08268X0.08268*%
%ADD31C,0.04331*%
D22*
X387008Y365197D02*
D03*
X444199Y407589D02*
D03*
X454042D02*
D03*
X463884D02*
D03*
X330026D02*
D03*
X320184D02*
D03*
X310341D02*
D03*
X386811Y270669D02*
D03*
X376811D02*
D03*
X468504Y279528D02*
D03*
X317087D02*
D03*
X439134D02*
D03*
D23*
X387008Y375197D02*
D03*
X396811Y270669D02*
D03*
D24*
X386599Y390732D02*
D03*
X376599Y400732D02*
D03*
X396599D02*
D03*
D25*
X446201Y371634D02*
D03*
X328189Y340827D02*
D03*
D26*
X446201Y361634D02*
D03*
X456201Y366634D02*
D03*
X338189Y335827D02*
D03*
X328189Y330827D02*
D03*
D27*
X472743Y437117D02*
D03*
X435341D02*
D03*
X301483D02*
D03*
X338884D02*
D03*
D28*
X377756Y348425D02*
D03*
X386811D02*
D03*
D29*
X395866D02*
D03*
D30*
X458504Y279528D02*
D03*
X307087D02*
D03*
X429134D02*
D03*
D31*
X421654Y388189D02*
D03*
X369291Y357874D02*
D03*
M02*
