G04*
G04 #@! TF.GenerationSoftware,Altium Limited,Altium Designer,25.0.2 (28)*
G04*
G04 Layer_Physical_Order=2*
G04 Layer_Color=16711680*
%FSLAX25Y25*%
%MOIN*%
G70*
G04*
G04 #@! TF.SameCoordinates,8CD03DE8-D389-49C6-8207-088A2C0857E2*
G04*
G04*
G04 #@! TF.FilePolarity,Positive*
G04*
G01*
G75*
%ADD32C,0.02362*%
%ADD33C,0.07874*%
%ADD34R,0.07874X0.07874*%
%ADD35C,0.05512*%
%ADD36R,0.07087X0.07087*%
%ADD37C,0.07087*%
%ADD38R,0.11811X0.09843*%
%ADD39O,0.07087X0.08268*%
%ADD40R,0.07087X0.08268*%
%ADD41R,0.07874X0.07874*%
%ADD42C,0.03937*%
G36*
X464642Y488091D02*
X464629D01*
X464654Y487707D01*
X464658Y487597D01*
X464677Y487021D01*
X464690Y486963D01*
X464686Y486903D01*
X464727Y486592D01*
X464774Y485876D01*
X464914Y485172D01*
X464955Y484861D01*
X464981Y484786D01*
X464986Y484707D01*
X465067Y484404D01*
X465207Y483700D01*
X465438Y483020D01*
X465519Y482717D01*
X465554Y482646D01*
X465570Y482568D01*
X465690Y482278D01*
X465920Y481598D01*
X466238Y480954D01*
X466358Y480664D01*
X466402Y480598D01*
X466428Y480523D01*
X466584Y480252D01*
X466902Y479608D01*
X467301Y479011D01*
X467458Y478739D01*
X467510Y478680D01*
X467545Y478608D01*
X467736Y478360D01*
X468135Y477763D01*
X468608Y477223D01*
X468799Y476974D01*
X468859Y476922D01*
X468903Y476856D01*
X469125Y476634D01*
X469598Y476094D01*
X470138Y475621D01*
X470360Y475399D01*
X470426Y475355D01*
X470478Y475295D01*
X470727Y475104D01*
X471267Y474631D01*
X471863Y474232D01*
X472112Y474041D01*
X472184Y474006D01*
X472243Y473954D01*
X472515Y473797D01*
X473112Y473398D01*
X473756Y473080D01*
X474027Y472924D01*
X474102Y472898D01*
X474168Y472854D01*
X474458Y472734D01*
X475102Y472416D01*
X475782Y472186D01*
X476072Y472066D01*
X476150Y472050D01*
X476221Y472015D01*
X476524Y471934D01*
X477204Y471703D01*
X477908Y471563D01*
X478210Y471482D01*
X478290Y471477D01*
X478365Y471451D01*
X478676Y471410D01*
X479380Y471270D01*
X480096Y471223D01*
X480407Y471182D01*
X480467Y471186D01*
X480525Y471173D01*
X481101Y471154D01*
X481211Y471150D01*
X481595Y471125D01*
Y471138D01*
X488264D01*
X488264Y261811D01*
X488256Y261773D01*
X488268Y261683D01*
X488269Y261652D01*
X488149Y260740D01*
X487796Y259888D01*
X487783Y259867D01*
X487237Y259156D01*
X487216Y259133D01*
X486486Y258573D01*
X485634Y258220D01*
X485610Y258215D01*
X484812Y258110D01*
X484812Y258110D01*
Y258110D01*
X484803Y258101D01*
X290720Y258094D01*
X289416D01*
X289404Y258106D01*
Y258106D01*
X289404Y258106D01*
X288606Y258211D01*
X288582Y258217D01*
X287730Y258570D01*
X287000Y259130D01*
X286979Y259152D01*
X286433Y259863D01*
X286420Y259884D01*
X286067Y260736D01*
X285954Y261596D01*
X285954Y261724D01*
X285960Y261770D01*
X285954Y261770D01*
X285948Y470785D01*
X286302Y471138D01*
X292618D01*
Y471125D01*
X293002Y471150D01*
X293112Y471154D01*
X293688Y471173D01*
X293746Y471186D01*
X293805Y471182D01*
X294116Y471223D01*
X294832Y471270D01*
X295537Y471410D01*
X295848Y471451D01*
X295923Y471477D01*
X296002Y471482D01*
X296305Y471563D01*
X297009Y471703D01*
X297689Y471934D01*
X297992Y472015D01*
X298063Y472050D01*
X298141Y472066D01*
X298431Y472186D01*
X299111Y472416D01*
X299754Y472734D01*
X300044Y472854D01*
X300110Y472898D01*
X300185Y472924D01*
X300457Y473080D01*
X301101Y473398D01*
X301698Y473797D01*
X301969Y473954D01*
X302029Y474006D01*
X302100Y474041D01*
X302349Y474232D01*
X302946Y474631D01*
X303486Y475104D01*
X303735Y475295D01*
X303787Y475355D01*
X303853Y475399D01*
X304075Y475621D01*
X304614Y476094D01*
X305088Y476634D01*
X305310Y476856D01*
X305354Y476922D01*
X305413Y476974D01*
X305604Y477223D01*
X306078Y477763D01*
X306476Y478360D01*
X306667Y478608D01*
X306703Y478680D01*
X306755Y478739D01*
X306912Y479011D01*
X307311Y479608D01*
X307628Y480252D01*
X307785Y480523D01*
X307810Y480598D01*
X307855Y480664D01*
X307975Y480954D01*
X308292Y481598D01*
X308523Y482278D01*
X308643Y482568D01*
X308658Y482646D01*
X308694Y482717D01*
X308775Y483020D01*
X309005Y483700D01*
X309146Y484404D01*
X309227Y484707D01*
X309232Y484786D01*
X309257Y484861D01*
X309298Y485172D01*
X309438Y485876D01*
X309485Y486593D01*
X309526Y486903D01*
X309522Y486963D01*
X309536Y487021D01*
X309555Y487597D01*
X309558Y487707D01*
X309584Y488091D01*
X309570D01*
Y494760D01*
X464642D01*
Y488091D01*
D02*
G37*
%LPC*%
G36*
X479648Y443038D02*
X473743D01*
Y438117D01*
X479648D01*
Y443038D01*
D02*
G37*
G36*
X308388D02*
X302483D01*
Y438117D01*
X308388D01*
Y443038D01*
D02*
G37*
G36*
X471743D02*
X465837D01*
Y438117D01*
X471743D01*
Y443038D01*
D02*
G37*
G36*
X300483D02*
X294577D01*
Y438117D01*
X300483D01*
Y443038D01*
D02*
G37*
G36*
X442247D02*
X436341D01*
Y438117D01*
X442247D01*
Y443038D01*
D02*
G37*
G36*
X345790D02*
X339884D01*
Y438117D01*
X345790D01*
Y443038D01*
D02*
G37*
G36*
X434341D02*
X428436D01*
Y438117D01*
X434341D01*
Y443038D01*
D02*
G37*
G36*
X337884D02*
X331979D01*
Y438117D01*
X337884D01*
Y443038D01*
D02*
G37*
G36*
X479648Y436117D02*
X473743D01*
Y431195D01*
X479648D01*
Y436117D01*
D02*
G37*
G36*
X471743D02*
X465837D01*
Y431195D01*
X471743D01*
Y436117D01*
D02*
G37*
G36*
X442247Y436117D02*
X436341D01*
Y431195D01*
X442247D01*
Y436117D01*
D02*
G37*
G36*
X434341D02*
X428436D01*
Y431195D01*
X434341D01*
Y436117D01*
D02*
G37*
G36*
X345790D02*
X339884D01*
Y431195D01*
X345790D01*
Y436117D01*
D02*
G37*
G36*
X337884D02*
X331979D01*
Y431195D01*
X337884D01*
Y436117D01*
D02*
G37*
G36*
X308388Y436117D02*
X302483D01*
Y431195D01*
X308388D01*
Y436117D01*
D02*
G37*
G36*
X300483D02*
X294577D01*
Y431195D01*
X300483D01*
Y436117D01*
D02*
G37*
G36*
X443199Y412432D02*
X442294Y412190D01*
X441168Y411540D01*
X440249Y410621D01*
X439599Y409495D01*
X439356Y408589D01*
X443199D01*
Y412432D01*
D02*
G37*
G36*
X309341D02*
X308436Y412190D01*
X307310Y411540D01*
X306391Y410621D01*
X305741Y409495D01*
X305498Y408589D01*
X309341D01*
Y412432D01*
D02*
G37*
G36*
X445199D02*
Y407589D01*
Y402746D01*
X446105Y402989D01*
X447231Y403639D01*
X448150Y404558D01*
X448800Y405684D01*
X448972Y406325D01*
X449489D01*
X449640Y405766D01*
X450261Y404688D01*
X451141Y403809D01*
X452218Y403187D01*
X453420Y402865D01*
X454664D01*
X455865Y403187D01*
X456943Y403809D01*
X457822Y404688D01*
X458444Y405766D01*
X458704Y406736D01*
X459222D01*
X459482Y405766D01*
X460104Y404688D01*
X460984Y403809D01*
X462061Y403187D01*
X463263Y402865D01*
X464506D01*
X465708Y403187D01*
X466785Y403809D01*
X467665Y404688D01*
X468287Y405766D01*
X468609Y406967D01*
Y408211D01*
X468287Y409413D01*
X467665Y410490D01*
X466785Y411370D01*
X465708Y411992D01*
X464506Y412314D01*
X463263D01*
X462061Y411992D01*
X460984Y411370D01*
X460104Y410490D01*
X459482Y409413D01*
X459222Y408442D01*
X458704D01*
X458444Y409413D01*
X457822Y410490D01*
X456943Y411370D01*
X455865Y411992D01*
X454664Y412314D01*
X453420D01*
X452218Y411992D01*
X451141Y411370D01*
X450261Y410490D01*
X449640Y409413D01*
X449489Y408853D01*
X448972D01*
X448800Y409495D01*
X448150Y410621D01*
X447231Y411540D01*
X446105Y412190D01*
X445199Y412432D01*
D02*
G37*
G36*
X309341Y406589D02*
X305498D01*
X305741Y405684D01*
X306391Y404558D01*
X307310Y403639D01*
X308436Y402989D01*
X309341Y402746D01*
Y406589D01*
D02*
G37*
G36*
X443199D02*
X439356D01*
X439599Y405684D01*
X440249Y404558D01*
X441168Y403639D01*
X442294Y402989D01*
X443199Y402746D01*
Y406589D01*
D02*
G37*
G36*
X377065Y404275D02*
X376132D01*
X375231Y404034D01*
X374423Y403567D01*
X373763Y402907D01*
X373297Y402099D01*
X373056Y401198D01*
Y400265D01*
X373297Y399364D01*
X373763Y398556D01*
X374423Y397896D01*
X375231Y397430D01*
X376132Y397188D01*
X377065D01*
X377966Y397430D01*
X378774Y397896D01*
X379434Y398556D01*
X379901Y399364D01*
X380142Y400265D01*
Y401198D01*
X379901Y402099D01*
X379434Y402907D01*
X378774Y403567D01*
X377966Y404034D01*
X377065Y404275D01*
D02*
G37*
G36*
X387065Y394275D02*
X386132D01*
X385231Y394034D01*
X384423Y393567D01*
X383764Y392907D01*
X383297Y392099D01*
X383055Y391198D01*
Y390265D01*
X383297Y389364D01*
X383764Y388556D01*
X384423Y387896D01*
X385231Y387430D01*
X386132Y387188D01*
X387065D01*
X387966Y387430D01*
X388774Y387896D01*
X389434Y388556D01*
X389901Y389364D01*
X390142Y390265D01*
Y391198D01*
X389901Y392099D01*
X389434Y392907D01*
X388774Y393567D01*
X387966Y394034D01*
X387065Y394275D01*
D02*
G37*
G36*
X391732Y379921D02*
X382283D01*
Y370472D01*
X391732D01*
Y379921D01*
D02*
G37*
G36*
X450531Y375965D02*
X441870D01*
Y367303D01*
X450531D01*
Y375965D01*
D02*
G37*
G36*
X456771Y370965D02*
X455631D01*
X454529Y370669D01*
X453542Y370099D01*
X452735Y369293D01*
X452165Y368305D01*
X451870Y367204D01*
Y366064D01*
X452165Y364962D01*
X452735Y363975D01*
X453542Y363168D01*
X454529Y362598D01*
X455631Y362303D01*
X456771D01*
X457872Y362598D01*
X458860Y363168D01*
X459666Y363975D01*
X460236Y364962D01*
X460532Y366064D01*
Y367204D01*
X460236Y368305D01*
X459666Y369293D01*
X458860Y370099D01*
X457872Y370669D01*
X456771Y370965D01*
D02*
G37*
G36*
X387630Y369921D02*
X386386D01*
X385184Y369599D01*
X384107Y368977D01*
X383227Y368098D01*
X382605Y367020D01*
X382283Y365819D01*
Y364575D01*
X382605Y363373D01*
X383227Y362296D01*
X384107Y361416D01*
X385184Y360794D01*
X386386Y360472D01*
X387630D01*
X388831Y360794D01*
X389909Y361416D01*
X390788Y362296D01*
X391410Y363373D01*
X391732Y364575D01*
Y365819D01*
X391410Y367020D01*
X390788Y368098D01*
X389909Y368977D01*
X388831Y369599D01*
X387630Y369921D01*
D02*
G37*
G36*
X422016Y390945D02*
X421291D01*
X420590Y390757D01*
X419961Y390394D01*
X419448Y389881D01*
X419086Y389253D01*
X418898Y388552D01*
Y387826D01*
X419086Y387125D01*
X419448Y386497D01*
X419647Y386299D01*
Y369291D01*
X419799Y368523D01*
X420234Y367872D01*
X427892Y360215D01*
X428543Y359780D01*
X429311Y359627D01*
X442359D01*
X442735Y358975D01*
X443542Y358168D01*
X444529Y357598D01*
X445631Y357303D01*
X446771D01*
X447872Y357598D01*
X448860Y358168D01*
X449666Y358975D01*
X450236Y359962D01*
X450531Y361064D01*
Y362204D01*
X450236Y363305D01*
X449666Y364293D01*
X448860Y365099D01*
X447872Y365669D01*
X446771Y365965D01*
X445631D01*
X444529Y365669D01*
X443542Y365099D01*
X442735Y364293D01*
X442359Y363641D01*
X430142D01*
X423661Y370123D01*
Y386299D01*
X423859Y386497D01*
X424222Y387125D01*
X424409Y387826D01*
Y388552D01*
X424222Y389253D01*
X423859Y389881D01*
X423346Y390394D01*
X422717Y390757D01*
X422016Y390945D01*
D02*
G37*
G36*
X400409Y353559D02*
X396866D01*
Y349425D01*
X400409D01*
Y353559D01*
D02*
G37*
G36*
Y347425D02*
X396866D01*
Y343291D01*
X400409D01*
Y347425D01*
D02*
G37*
G36*
X397065Y404275D02*
X396132D01*
X395231Y404034D01*
X394423Y403567D01*
X393763Y402907D01*
X393297Y402099D01*
X393056Y401198D01*
Y400265D01*
X393297Y399364D01*
X393763Y398556D01*
X394423Y397896D01*
X394592Y397799D01*
Y387981D01*
X391688Y385078D01*
X381496D01*
X380728Y384925D01*
X380077Y384490D01*
X376337Y380750D01*
X375902Y380099D01*
X375749Y379331D01*
Y352872D01*
X375572Y352799D01*
X374667Y352104D01*
X373973Y351200D01*
X373537Y350146D01*
X373388Y349016D01*
Y347835D01*
X373537Y346704D01*
X373973Y345651D01*
X374667Y344746D01*
X375572Y344052D01*
X376625Y343615D01*
X377756Y343467D01*
X378886Y343615D01*
X379940Y344052D01*
X380845Y344746D01*
X381539Y345651D01*
X381975Y346704D01*
X382031Y347131D01*
X382536D01*
X382592Y346704D01*
X383028Y345651D01*
X383722Y344746D01*
X384627Y344052D01*
X385681Y343615D01*
X386811Y343467D01*
X387942Y343615D01*
X388995Y344052D01*
X389900Y344746D01*
X390594Y345651D01*
X390823Y346203D01*
X391323Y346104D01*
Y343291D01*
X394866D01*
Y348425D01*
Y353559D01*
X391323D01*
Y350746D01*
X390823Y350647D01*
X390594Y351200D01*
X389900Y352104D01*
X388995Y352799D01*
X387942Y353235D01*
X386811Y353384D01*
X385681Y353235D01*
X384627Y352799D01*
X383722Y352104D01*
X383028Y351200D01*
X382592Y350146D01*
X382536Y349720D01*
X382031D01*
X381975Y350146D01*
X381539Y351200D01*
X380845Y352104D01*
X379940Y352799D01*
X379763Y352872D01*
Y378499D01*
X382327Y381064D01*
X392520D01*
X393288Y381217D01*
X393939Y381652D01*
X398018Y385731D01*
X398453Y386382D01*
X398606Y387150D01*
Y397799D01*
X398774Y397896D01*
X399434Y398556D01*
X399901Y399364D01*
X400142Y400265D01*
Y401198D01*
X399901Y402099D01*
X399434Y402907D01*
X398774Y403567D01*
X397967Y404034D01*
X397065Y404275D01*
D02*
G37*
G36*
X332520Y345158D02*
X323858D01*
Y336496D01*
X332520D01*
Y345158D01*
D02*
G37*
G36*
X338759Y340158D02*
X337619D01*
X336517Y339862D01*
X335530Y339292D01*
X334723Y338486D01*
X334153Y337498D01*
X333858Y336397D01*
Y335257D01*
X334153Y334155D01*
X334723Y333168D01*
X335530Y332361D01*
X336517Y331791D01*
X337619Y331496D01*
X338759D01*
X339861Y331791D01*
X340848Y332361D01*
X341654Y333168D01*
X342225Y334155D01*
X342520Y335257D01*
Y336397D01*
X342225Y337498D01*
X341654Y338486D01*
X340848Y339292D01*
X339861Y339862D01*
X338759Y340158D01*
D02*
G37*
G36*
X328759Y335157D02*
X327619D01*
X326517Y334862D01*
X325530Y334292D01*
X324724Y333486D01*
X324153Y332498D01*
X323858Y331397D01*
Y330257D01*
X324153Y329155D01*
X324724Y328168D01*
X325530Y327361D01*
X326517Y326791D01*
X327619Y326496D01*
X328759D01*
X329861Y326791D01*
X330848Y327361D01*
X331654Y328168D01*
X332224Y329155D01*
X332520Y330257D01*
Y331397D01*
X332224Y332498D01*
X331654Y333486D01*
X330848Y334292D01*
X329861Y334862D01*
X328759Y335157D01*
D02*
G37*
G36*
X438134Y284371D02*
X437228Y284128D01*
X436102Y283478D01*
X435183Y282559D01*
X434533Y281433D01*
X434358Y280780D01*
X433858Y280846D01*
Y284252D01*
X424409D01*
Y274803D01*
X433858D01*
Y278209D01*
X434358Y278275D01*
X434533Y277622D01*
X435183Y276496D01*
X436102Y275577D01*
X437228Y274927D01*
X438134Y274684D01*
Y279528D01*
Y284371D01*
D02*
G37*
G36*
X316087Y284371D02*
X315181Y284128D01*
X314055Y283478D01*
X313136Y282559D01*
X312486Y281433D01*
X312311Y280780D01*
X311811Y280846D01*
Y284252D01*
X302362D01*
Y274803D01*
X311811D01*
Y278209D01*
X312311Y278275D01*
X312486Y277622D01*
X313136Y276496D01*
X314055Y275577D01*
X315181Y274927D01*
X316087Y274684D01*
Y279528D01*
Y284371D01*
D02*
G37*
G36*
X469504D02*
Y280528D01*
X473347D01*
X473104Y281433D01*
X472455Y282559D01*
X471535Y283478D01*
X470410Y284128D01*
X469504Y284371D01*
D02*
G37*
G36*
X440134D02*
Y280528D01*
X443977D01*
X443734Y281433D01*
X443084Y282559D01*
X442165Y283478D01*
X441040Y284128D01*
X440134Y284371D01*
D02*
G37*
G36*
X318087D02*
Y280528D01*
X321930D01*
X321687Y281433D01*
X321037Y282559D01*
X320118Y283478D01*
X318992Y284128D01*
X318087Y284371D01*
D02*
G37*
G36*
X398740Y420905D02*
X341335D01*
X340567Y420752D01*
X339915Y420317D01*
X331645Y412046D01*
X330648Y412314D01*
X329404D01*
X328203Y411992D01*
X327125Y411370D01*
X326246Y410490D01*
X325624Y409413D01*
X325364Y408442D01*
X324846D01*
X324586Y409413D01*
X323964Y410490D01*
X323084Y411370D01*
X322007Y411992D01*
X320806Y412314D01*
X319562D01*
X318360Y411992D01*
X317283Y411370D01*
X316403Y410490D01*
X315781Y409413D01*
X315631Y408853D01*
X315114D01*
X314942Y409495D01*
X314292Y410621D01*
X313373Y411540D01*
X312247Y412190D01*
X311341Y412432D01*
Y407589D01*
Y402746D01*
X312247Y402989D01*
X313373Y403639D01*
X314292Y404558D01*
X314942Y405684D01*
X315114Y406325D01*
X315631D01*
X315781Y405766D01*
X316403Y404688D01*
X317283Y403809D01*
X318360Y403187D01*
X319562Y402865D01*
X320806D01*
X322007Y403187D01*
X323084Y403809D01*
X323964Y404688D01*
X324586Y405766D01*
X324846Y406736D01*
X325364D01*
X325624Y405766D01*
X326246Y404688D01*
X327125Y403809D01*
X328203Y403187D01*
X329404Y402865D01*
X330648D01*
X331850Y403187D01*
X332927Y403809D01*
X333807Y404688D01*
X334429Y405766D01*
X334751Y406967D01*
Y408211D01*
X334484Y409208D01*
X342166Y416891D01*
X397909D01*
X412560Y402240D01*
Y323465D01*
X412713Y322696D01*
X413148Y322045D01*
X453780Y281414D01*
Y274803D01*
X463228D01*
Y278209D01*
X463728Y278275D01*
X463903Y277622D01*
X464553Y276496D01*
X465473Y275577D01*
X466598Y274927D01*
X467504Y274684D01*
Y279528D01*
Y284371D01*
X466598Y284128D01*
X465473Y283478D01*
X464553Y282559D01*
X463903Y281433D01*
X463728Y280780D01*
X463228Y280846D01*
Y284252D01*
X456618D01*
X416574Y324296D01*
Y403071D01*
X416421Y403839D01*
X415986Y404490D01*
X400160Y420317D01*
X399509Y420752D01*
X398740Y420905D01*
D02*
G37*
G36*
X321930Y278528D02*
X318087D01*
Y274684D01*
X318992Y274927D01*
X320118Y275577D01*
X321037Y276496D01*
X321687Y277622D01*
X321930Y278528D01*
D02*
G37*
G36*
X443977Y278528D02*
X440134D01*
Y274684D01*
X441040Y274927D01*
X442165Y275577D01*
X443084Y276496D01*
X443734Y277622D01*
X443977Y278528D01*
D02*
G37*
G36*
X473347D02*
X469504D01*
Y274684D01*
X470410Y274927D01*
X471535Y275577D01*
X472455Y276496D01*
X473104Y277622D01*
X473347Y278528D01*
D02*
G37*
G36*
X395811Y275606D02*
X391874D01*
Y272985D01*
X391789Y272921D01*
X391135Y273054D01*
X390762Y273701D01*
X389842Y274620D01*
X388717Y275270D01*
X387811Y275513D01*
Y270669D01*
Y265826D01*
X388717Y266069D01*
X389842Y266719D01*
X390762Y267638D01*
X391135Y268285D01*
X391789Y268418D01*
X391874Y268354D01*
Y265732D01*
X395811D01*
Y270669D01*
Y275606D01*
D02*
G37*
G36*
X385811Y275513D02*
X384905Y275270D01*
X383780Y274620D01*
X382860Y273701D01*
X382210Y272575D01*
X382070Y272050D01*
X381552D01*
X381412Y272575D01*
X380762Y273701D01*
X379842Y274620D01*
X378717Y275270D01*
X377811Y275513D01*
Y270669D01*
Y265826D01*
X378717Y266069D01*
X379842Y266719D01*
X380762Y267638D01*
X381412Y268764D01*
X381552Y269288D01*
X382070D01*
X382210Y268764D01*
X382860Y267638D01*
X383780Y266719D01*
X384905Y266069D01*
X385811Y265826D01*
Y270669D01*
Y275513D01*
D02*
G37*
G36*
X401748Y275606D02*
X397811D01*
Y271669D01*
X401748D01*
Y275606D01*
D02*
G37*
G36*
X375811Y275513D02*
X374905Y275270D01*
X373780Y274620D01*
X372860Y273701D01*
X372211Y272575D01*
X371968Y271669D01*
X375811D01*
Y275513D01*
D02*
G37*
G36*
Y269669D02*
X371968D01*
X372211Y268764D01*
X372860Y267638D01*
X373780Y266719D01*
X374905Y266069D01*
X375811Y265826D01*
Y269669D01*
D02*
G37*
G36*
X401748D02*
X397811D01*
Y265732D01*
X401748D01*
Y269669D01*
D02*
G37*
%LPD*%
D32*
X392520Y383071D02*
X396599Y387150D01*
Y400732D01*
X381496Y383071D02*
X392520D01*
X377756Y379331D02*
X381496Y383071D01*
X421654Y369291D02*
Y388189D01*
Y369291D02*
X429311Y361634D01*
X446201D01*
X414567Y323465D02*
X458504Y279528D01*
X414567Y323465D02*
Y403071D01*
X398740Y418898D02*
X414567Y403071D01*
X377756Y348425D02*
Y379331D01*
X330026Y407589D02*
X341335Y418898D01*
X398740D01*
D33*
X387008Y365197D02*
D03*
X444199Y407589D02*
D03*
X454042D02*
D03*
X463884D02*
D03*
X330026D02*
D03*
X320184D02*
D03*
X310341D02*
D03*
X386811Y270669D02*
D03*
X376811D02*
D03*
X468504Y279528D02*
D03*
X317087D02*
D03*
X439134D02*
D03*
D34*
X387008Y375197D02*
D03*
X396811Y270669D02*
D03*
D35*
X386599Y390732D02*
D03*
X376599Y400732D02*
D03*
X396599D02*
D03*
D36*
X446201Y371634D02*
D03*
X328189Y340827D02*
D03*
D37*
X446201Y361634D02*
D03*
X456201Y366634D02*
D03*
X338189Y335827D02*
D03*
X328189Y330827D02*
D03*
D38*
X472743Y437117D02*
D03*
X435341D02*
D03*
X301483D02*
D03*
X338884D02*
D03*
D39*
X377756Y348425D02*
D03*
X386811D02*
D03*
D40*
X395866D02*
D03*
D41*
X458504Y279528D02*
D03*
X307087D02*
D03*
X429134D02*
D03*
D42*
X421654Y388189D02*
D03*
X369291Y357874D02*
D03*
M02*
