G04*
G04 #@! TF.GenerationSoftware,Altium Limited,Altium Designer,25.0.2 (28)*
G04*
G04 Layer_Physical_Order=1*
G04 Layer_Color=255*
%FSLAX25Y25*%
%MOIN*%
G70*
G04*
G04 #@! TF.SameCoordinates,8CD03DE8-D389-49C6-8207-088A2C0857E2*
G04*
G04*
G04 #@! TF.FilePolarity,Positive*
G04*
G01*
G75*
%ADD14R,0.04921X0.03937*%
%ADD15R,0.03937X0.04921*%
%ADD16R,0.11811X0.06299*%
%ADD17R,0.05906X0.05118*%
%ADD32C,0.02362*%
%ADD33C,0.07874*%
%ADD34R,0.07874X0.07874*%
%ADD35C,0.05512*%
%ADD36R,0.07087X0.07087*%
%ADD37C,0.07087*%
%ADD38R,0.11811X0.09843*%
%ADD39O,0.07087X0.08268*%
%ADD40R,0.07087X0.08268*%
%ADD41R,0.07874X0.07874*%
%ADD42C,0.03937*%
G36*
X464642Y488091D02*
X464629D01*
X464654Y487707D01*
X464658Y487597D01*
X464677Y487021D01*
X464690Y486963D01*
X464686Y486903D01*
X464727Y486592D01*
X464774Y485876D01*
X464914Y485172D01*
X464955Y484861D01*
X464981Y484786D01*
X464986Y484707D01*
X465067Y484404D01*
X465207Y483700D01*
X465438Y483020D01*
X465519Y482717D01*
X465554Y482646D01*
X465570Y482568D01*
X465690Y482278D01*
X465920Y481598D01*
X466238Y480954D01*
X466358Y480664D01*
X466402Y480598D01*
X466428Y480523D01*
X466584Y480252D01*
X466902Y479608D01*
X467301Y479011D01*
X467458Y478739D01*
X467510Y478680D01*
X467545Y478608D01*
X467736Y478360D01*
X468135Y477763D01*
X468608Y477223D01*
X468799Y476974D01*
X468859Y476922D01*
X468903Y476856D01*
X469125Y476634D01*
X469598Y476094D01*
X470138Y475621D01*
X470360Y475399D01*
X470426Y475355D01*
X470478Y475295D01*
X470727Y475104D01*
X471267Y474631D01*
X471863Y474232D01*
X472112Y474041D01*
X472184Y474006D01*
X472243Y473954D01*
X472515Y473797D01*
X473112Y473398D01*
X473756Y473080D01*
X474027Y472924D01*
X474102Y472898D01*
X474168Y472854D01*
X474458Y472734D01*
X475102Y472416D01*
X475782Y472186D01*
X476072Y472066D01*
X476150Y472050D01*
X476221Y472015D01*
X476524Y471934D01*
X477204Y471703D01*
X477908Y471563D01*
X478210Y471482D01*
X478290Y471477D01*
X478365Y471451D01*
X478676Y471410D01*
X479380Y471270D01*
X480096Y471223D01*
X480407Y471182D01*
X480467Y471186D01*
X480525Y471173D01*
X481101Y471154D01*
X481211Y471150D01*
X481595Y471125D01*
Y471138D01*
X488264D01*
X488264Y261811D01*
X488256Y261773D01*
X488268Y261683D01*
X488269Y261652D01*
X488149Y260740D01*
X487796Y259888D01*
X487783Y259867D01*
X487237Y259156D01*
X487216Y259133D01*
X486486Y258573D01*
X485634Y258220D01*
X485610Y258215D01*
X484812Y258110D01*
X484812Y258110D01*
Y258110D01*
X484803Y258101D01*
X290720Y258094D01*
X289416D01*
X289404Y258106D01*
Y258106D01*
X289404Y258106D01*
X288606Y258211D01*
X288582Y258217D01*
X287730Y258570D01*
X287000Y259130D01*
X286979Y259152D01*
X286433Y259863D01*
X286420Y259884D01*
X286067Y260736D01*
X285954Y261596D01*
X285954Y261724D01*
X285960Y261770D01*
X285954Y261770D01*
X285948Y470785D01*
X286302Y471138D01*
X292618D01*
Y471125D01*
X293002Y471150D01*
X293112Y471154D01*
X293688Y471173D01*
X293746Y471186D01*
X293805Y471182D01*
X294116Y471223D01*
X294832Y471270D01*
X295537Y471410D01*
X295848Y471451D01*
X295923Y471477D01*
X296002Y471482D01*
X296305Y471563D01*
X297009Y471703D01*
X297689Y471934D01*
X297992Y472015D01*
X298063Y472050D01*
X298141Y472066D01*
X298431Y472186D01*
X299111Y472416D01*
X299754Y472734D01*
X300044Y472854D01*
X300110Y472898D01*
X300185Y472924D01*
X300457Y473080D01*
X301101Y473398D01*
X301698Y473797D01*
X301969Y473954D01*
X302029Y474006D01*
X302100Y474041D01*
X302349Y474232D01*
X302946Y474631D01*
X303486Y475104D01*
X303735Y475295D01*
X303787Y475355D01*
X303853Y475399D01*
X304075Y475621D01*
X304614Y476094D01*
X305088Y476634D01*
X305310Y476856D01*
X305354Y476922D01*
X305413Y476974D01*
X305604Y477223D01*
X306078Y477763D01*
X306476Y478360D01*
X306667Y478608D01*
X306703Y478680D01*
X306755Y478739D01*
X306912Y479011D01*
X307311Y479608D01*
X307628Y480252D01*
X307785Y480523D01*
X307810Y480598D01*
X307855Y480664D01*
X307975Y480954D01*
X308292Y481598D01*
X308523Y482278D01*
X308643Y482568D01*
X308658Y482646D01*
X308694Y482717D01*
X308775Y483020D01*
X309005Y483700D01*
X309146Y484404D01*
X309227Y484707D01*
X309232Y484786D01*
X309257Y484861D01*
X309298Y485172D01*
X309438Y485876D01*
X309485Y486593D01*
X309526Y486903D01*
X309522Y486963D01*
X309536Y487021D01*
X309555Y487597D01*
X309558Y487707D01*
X309584Y488091D01*
X309570D01*
Y494760D01*
X464642D01*
Y488091D01*
D02*
G37*
%LPC*%
G36*
X479436Y442825D02*
X466050D01*
Y431408D01*
X479436D01*
Y442825D01*
D02*
G37*
G36*
X442034D02*
X428648D01*
Y431408D01*
X442034D01*
Y442825D01*
D02*
G37*
G36*
X345577D02*
X332192D01*
Y431408D01*
X345577D01*
Y442825D01*
D02*
G37*
G36*
X308176D02*
X294790D01*
Y431408D01*
X308176D01*
Y442825D01*
D02*
G37*
G36*
X397065Y404275D02*
X396132D01*
X395231Y404034D01*
X394423Y403567D01*
X393763Y402907D01*
X393297Y402099D01*
X393056Y401198D01*
Y400265D01*
X393297Y399364D01*
X393763Y398556D01*
X394423Y397896D01*
X395231Y397430D01*
X396132Y397188D01*
X397065D01*
X397967Y397430D01*
X398774Y397896D01*
X399434Y398556D01*
X399901Y399364D01*
X400142Y400265D01*
Y401198D01*
X399901Y402099D01*
X399434Y402907D01*
X398774Y403567D01*
X397967Y404034D01*
X397065Y404275D01*
D02*
G37*
G36*
X467717Y422873D02*
X333461D01*
X332693Y422720D01*
X332041Y422285D01*
X321803Y412046D01*
X320806Y412314D01*
X319562D01*
X318360Y411992D01*
X317283Y411370D01*
X316403Y410490D01*
X315781Y409413D01*
X315521Y408442D01*
X315004D01*
X314744Y409413D01*
X314122Y410490D01*
X313242Y411370D01*
X312165Y411992D01*
X310963Y412314D01*
X309719D01*
X308518Y411992D01*
X307440Y411370D01*
X306561Y410490D01*
X305939Y409413D01*
X305617Y408211D01*
Y406967D01*
X305939Y405766D01*
X306561Y404688D01*
X307440Y403809D01*
X308518Y403187D01*
X309719Y402865D01*
X310963D01*
X312165Y403187D01*
X313242Y403809D01*
X314122Y404688D01*
X314744Y405766D01*
X315004Y406736D01*
X315521D01*
X315781Y405766D01*
X316403Y404688D01*
X317283Y403809D01*
X318360Y403187D01*
X319562Y402865D01*
X320806D01*
X322007Y403187D01*
X323084Y403809D01*
X323964Y404688D01*
X324586Y405766D01*
X324846Y406736D01*
X325364D01*
X325624Y405766D01*
X326246Y404688D01*
X327125Y403809D01*
X328203Y403187D01*
X329404Y402865D01*
X330648D01*
X331850Y403187D01*
X332927Y403809D01*
X333807Y404688D01*
X334429Y405766D01*
X334751Y406967D01*
Y408211D01*
X334429Y409413D01*
X333807Y410490D01*
X332927Y411370D01*
X331850Y411992D01*
X330648Y412314D01*
X329404D01*
X328203Y411992D01*
X328035Y411895D01*
X327728Y412295D01*
X334292Y418859D01*
X466885D01*
X472796Y412948D01*
Y395768D01*
X472047D01*
Y389272D01*
X477559D01*
Y395768D01*
X476810D01*
Y413779D01*
X476657Y414548D01*
X476222Y415199D01*
X469136Y422285D01*
X468485Y422720D01*
X467717Y422873D01*
D02*
G37*
G36*
X377065Y404275D02*
X376132D01*
X375231Y404034D01*
X374423Y403567D01*
X373763Y402907D01*
X373297Y402099D01*
X373056Y401198D01*
Y400265D01*
X373297Y399364D01*
X373763Y398556D01*
X374423Y397896D01*
X375231Y397430D01*
X376132Y397188D01*
X377065D01*
X377253Y397239D01*
X383106Y391386D01*
X383055Y391198D01*
Y390265D01*
X383297Y389364D01*
X383764Y388556D01*
X384423Y387896D01*
X385231Y387430D01*
X386132Y387188D01*
X387065D01*
X387966Y387430D01*
X388774Y387896D01*
X389434Y388556D01*
X389531Y388725D01*
X417853D01*
X418951Y387627D01*
X419086Y387125D01*
X419448Y386497D01*
X419961Y385984D01*
X420590Y385621D01*
X421291Y385433D01*
X422016D01*
X422717Y385621D01*
X423346Y385984D01*
X423859Y386497D01*
X424222Y387125D01*
X424409Y387826D01*
Y388552D01*
X424222Y389253D01*
X423859Y389881D01*
X423346Y390394D01*
X422717Y390757D01*
X422016Y390945D01*
X421310D01*
X420104Y392151D01*
X419453Y392586D01*
X418685Y392739D01*
X389531D01*
X389434Y392907D01*
X388774Y393567D01*
X387966Y394034D01*
X387065Y394275D01*
X386132D01*
X385944Y394225D01*
X380092Y400077D01*
X380142Y400265D01*
Y401198D01*
X379901Y402099D01*
X379434Y402907D01*
X378774Y403567D01*
X377966Y404034D01*
X377065Y404275D01*
D02*
G37*
G36*
X447852Y415787D02*
X365795D01*
X365027Y415634D01*
X364375Y415199D01*
X359211Y410034D01*
X358776Y409383D01*
X358623Y408615D01*
Y341776D01*
X354680Y337834D01*
X349645D01*
Y341732D01*
X350886D01*
Y347244D01*
X344390D01*
Y341732D01*
X345631D01*
Y337834D01*
X342031D01*
X341654Y338486D01*
X340848Y339292D01*
X339861Y339862D01*
X338759Y340158D01*
X337619D01*
X336517Y339862D01*
X335530Y339292D01*
X334723Y338486D01*
X334153Y337498D01*
X333858Y336397D01*
Y335257D01*
X334153Y334155D01*
X334723Y333168D01*
X335530Y332361D01*
X336517Y331791D01*
X337619Y331496D01*
X338759D01*
X339861Y331791D01*
X340848Y332361D01*
X341654Y333168D01*
X342031Y333820D01*
X345631D01*
Y332283D01*
X344390D01*
Y326772D01*
X350886D01*
Y332283D01*
X349645D01*
Y333820D01*
X355512D01*
X356280Y333973D01*
X356931Y334408D01*
X362049Y339526D01*
X362484Y340177D01*
X362637Y340945D01*
Y407783D01*
X366626Y411772D01*
X441064D01*
X441201Y411272D01*
X440419Y410490D01*
X439797Y409413D01*
X439475Y408211D01*
Y406967D01*
X439797Y405766D01*
X440419Y404688D01*
X441299Y403809D01*
X442376Y403187D01*
X443577Y402865D01*
X444821D01*
X446023Y403187D01*
X447100Y403809D01*
X447980Y404688D01*
X448602Y405766D01*
X448862Y406736D01*
X449379D01*
X449640Y405766D01*
X450261Y404688D01*
X451141Y403809D01*
X452218Y403187D01*
X453420Y402865D01*
X454664D01*
X455865Y403187D01*
X456943Y403809D01*
X457822Y404688D01*
X458444Y405766D01*
X458704Y406736D01*
X459222D01*
X459482Y405766D01*
X460104Y404688D01*
X460984Y403809D01*
X461488Y403518D01*
Y400940D01*
X442476Y381928D01*
X435138D01*
Y382677D01*
X428642D01*
Y377165D01*
X435138D01*
Y377914D01*
X443307D01*
X444075Y378067D01*
X444726Y378502D01*
X464914Y398690D01*
X465349Y399341D01*
X465502Y400109D01*
Y403131D01*
X465708Y403187D01*
X466785Y403809D01*
X467665Y404688D01*
X468287Y405766D01*
X468609Y406967D01*
Y408211D01*
X468287Y409413D01*
X467665Y410490D01*
X466785Y411370D01*
X465708Y411992D01*
X464506Y412314D01*
X463263D01*
X462061Y411992D01*
X460984Y411370D01*
X460104Y410490D01*
X459482Y409413D01*
X459222Y408442D01*
X458704D01*
X458444Y409413D01*
X457822Y410490D01*
X456943Y411370D01*
X455865Y411992D01*
X454664Y412314D01*
X453420D01*
X452423Y412046D01*
X449271Y415199D01*
X448620Y415634D01*
X447852Y415787D01*
D02*
G37*
G36*
X469685Y395768D02*
X464173D01*
Y389272D01*
X464932D01*
Y386122D01*
X463701D01*
Y380610D01*
X470197D01*
Y386122D01*
X468946D01*
Y389272D01*
X469685D01*
Y395768D01*
D02*
G37*
G36*
X391945Y380134D02*
X388008D01*
Y376197D01*
X391945D01*
Y380134D01*
D02*
G37*
G36*
X386008D02*
X382071D01*
Y376197D01*
X386008D01*
Y380134D01*
D02*
G37*
G36*
X450531Y375965D02*
X441870D01*
Y374054D01*
X435138D01*
Y374803D01*
X428642D01*
Y374054D01*
X409842D01*
X409074Y373902D01*
X408423Y373466D01*
X402161Y367204D01*
X391304D01*
X390788Y368098D01*
X389909Y368977D01*
X388831Y369599D01*
X388232Y369760D01*
X388298Y370260D01*
X391945D01*
Y374197D01*
X382071D01*
Y370260D01*
X385718D01*
X385783Y369760D01*
X385184Y369599D01*
X384107Y368977D01*
X383227Y368098D01*
X382605Y367020D01*
X382283Y365819D01*
Y364575D01*
X382605Y363373D01*
X383227Y362296D01*
X384107Y361416D01*
X384902Y360957D01*
Y352913D01*
X384627Y352799D01*
X383722Y352104D01*
X383028Y351200D01*
X382592Y350146D01*
X382536Y349720D01*
X382031D01*
X381975Y350146D01*
X381539Y351200D01*
X380845Y352104D01*
X379940Y352799D01*
X378886Y353235D01*
X377756Y353384D01*
X376625Y353235D01*
X375572Y352799D01*
X374667Y352104D01*
X373973Y351200D01*
X373537Y350146D01*
X373388Y349016D01*
Y347835D01*
X373537Y346704D01*
X373973Y345651D01*
X374667Y344746D01*
X375572Y344052D01*
X376625Y343615D01*
X377756Y343467D01*
X378886Y343615D01*
X379940Y344052D01*
X380845Y344746D01*
X381539Y345651D01*
X381975Y346704D01*
X382031Y347131D01*
X382536D01*
X382592Y346704D01*
X383028Y345651D01*
X383722Y344746D01*
X384627Y344052D01*
X385681Y343615D01*
X386811Y343467D01*
X387942Y343615D01*
X388995Y344052D01*
X389900Y344746D01*
X390594Y345651D01*
X391030Y346704D01*
X391035Y346743D01*
X391535Y346711D01*
Y343504D01*
X400197D01*
Y353346D01*
X391535D01*
Y350140D01*
X391035Y350107D01*
X391030Y350146D01*
X390594Y351200D01*
X389900Y352104D01*
X388995Y352799D01*
X388916Y352831D01*
Y360843D01*
X389909Y361416D01*
X390788Y362296D01*
X391304Y363190D01*
X402992D01*
X403760Y363343D01*
X404411Y363778D01*
X410674Y370040D01*
X428642D01*
Y369291D01*
X435138D01*
Y370040D01*
X441870D01*
Y367303D01*
X450531D01*
Y375965D01*
D02*
G37*
G36*
X372752Y373835D02*
X370291D01*
Y371866D01*
X372752D01*
Y373835D01*
D02*
G37*
G36*
X368291D02*
X365831D01*
Y371866D01*
X368291D01*
Y373835D01*
D02*
G37*
G36*
X470197Y378248D02*
X463701D01*
Y372736D01*
X464942D01*
Y368406D01*
X463701D01*
Y368149D01*
X460278D01*
X460236Y368305D01*
X459666Y369293D01*
X458860Y370099D01*
X457872Y370669D01*
X456771Y370965D01*
X455631D01*
X454529Y370669D01*
X453542Y370099D01*
X452735Y369293D01*
X452165Y368305D01*
X451870Y367204D01*
Y366064D01*
X452165Y364962D01*
X452735Y363975D01*
X453542Y363168D01*
X454529Y362598D01*
X455631Y362303D01*
X456771D01*
X457872Y362598D01*
X458860Y363168D01*
X459666Y363975D01*
X459759Y364135D01*
X463701D01*
Y362894D01*
X470197D01*
Y368406D01*
X468956D01*
Y372736D01*
X470197D01*
Y378248D01*
D02*
G37*
G36*
X372752Y369866D02*
X370291D01*
Y367898D01*
X372752D01*
Y369866D01*
D02*
G37*
G36*
X368291D02*
X365831D01*
Y367898D01*
X368291D01*
Y369866D01*
D02*
G37*
G36*
X372539Y365748D02*
X366043D01*
Y360236D01*
X367216D01*
X367256Y359736D01*
X367086Y359566D01*
X366723Y358938D01*
X366535Y358237D01*
Y357511D01*
X366723Y356810D01*
X367086Y356182D01*
X367599Y355669D01*
X368228Y355306D01*
X368929Y355118D01*
X369654D01*
X370355Y355306D01*
X370984Y355669D01*
X371497Y356182D01*
X371859Y356810D01*
X372047Y357511D01*
Y358237D01*
X371859Y358938D01*
X371497Y359566D01*
X371327Y359736D01*
X371366Y360236D01*
X372539D01*
Y365748D01*
D02*
G37*
G36*
X470197Y360531D02*
X463701D01*
Y359783D01*
X462028D01*
X461260Y359630D01*
X460608Y359195D01*
X455687Y354274D01*
X455252Y353622D01*
X455099Y352854D01*
Y351181D01*
X454350D01*
Y344685D01*
X455099D01*
Y340354D01*
X454350D01*
Y333858D01*
X459862D01*
Y335099D01*
X462224D01*
Y333858D01*
X467736D01*
Y340354D01*
X462224D01*
Y339113D01*
X459862D01*
Y340354D01*
X459113D01*
Y344685D01*
X459862D01*
Y351181D01*
X459113D01*
Y352023D01*
X462859Y355768D01*
X463701D01*
Y355020D01*
X470197D01*
Y360531D01*
D02*
G37*
G36*
X351098Y355331D02*
X348638D01*
Y353362D01*
X351098D01*
Y355331D01*
D02*
G37*
G36*
X346638D02*
X344177D01*
Y353362D01*
X346638D01*
Y355331D01*
D02*
G37*
G36*
X351098Y351362D02*
X348638D01*
Y349394D01*
X351098D01*
Y351362D01*
D02*
G37*
G36*
X346638D02*
X344177D01*
Y349394D01*
X346638D01*
Y351362D01*
D02*
G37*
G36*
X446771Y365965D02*
X445631D01*
X444529Y365669D01*
X443542Y365099D01*
X442735Y364293D01*
X442165Y363305D01*
X441870Y362204D01*
Y361064D01*
X442165Y359962D01*
X442735Y358975D01*
X443542Y358168D01*
X444529Y357598D01*
X445631Y357303D01*
X446202D01*
X447225Y356279D01*
Y351181D01*
X446476D01*
Y344685D01*
X451988D01*
Y351181D01*
X451239D01*
Y357111D01*
X451087Y357879D01*
X450652Y358530D01*
X449864Y359317D01*
X450236Y359962D01*
X450531Y361064D01*
Y362204D01*
X450236Y363305D01*
X449666Y364293D01*
X448860Y365099D01*
X447872Y365669D01*
X446771Y365965D01*
D02*
G37*
G36*
X332732Y345370D02*
X329189D01*
Y341827D01*
X332732D01*
Y345370D01*
D02*
G37*
G36*
X327189D02*
X323646D01*
Y341827D01*
X327189D01*
Y345370D01*
D02*
G37*
G36*
X452201Y340567D02*
X450232D01*
Y338106D01*
X452201D01*
Y340567D01*
D02*
G37*
G36*
X448232D02*
X446264D01*
Y338106D01*
X448232D01*
Y340567D01*
D02*
G37*
G36*
X332732Y339827D02*
X329189D01*
Y336283D01*
X332732D01*
Y339827D01*
D02*
G37*
G36*
X327189D02*
X323646D01*
Y336283D01*
X327189D01*
Y339827D01*
D02*
G37*
G36*
X328759Y335157D02*
X327619D01*
X326517Y334862D01*
X325530Y334292D01*
X324724Y333486D01*
X324313Y332775D01*
X319390D01*
Y333465D01*
X312894D01*
Y332775D01*
X311122D01*
Y333465D01*
X304626D01*
Y327953D01*
X311122D01*
Y328761D01*
X312894D01*
Y327953D01*
X319390D01*
Y328761D01*
X324381D01*
X324724Y328168D01*
X325530Y327361D01*
X326517Y326791D01*
X327619Y326496D01*
X328759D01*
X329861Y326791D01*
X330848Y327361D01*
X331654Y328168D01*
X332224Y329155D01*
X332520Y330257D01*
Y331397D01*
X332224Y332498D01*
X331654Y333486D01*
X330848Y334292D01*
X329861Y334862D01*
X328759Y335157D01*
D02*
G37*
G36*
X319390Y325590D02*
X312894D01*
Y320079D01*
X313938D01*
Y302067D01*
X312992D01*
Y295571D01*
X315079D01*
Y283824D01*
X314186Y283308D01*
X313306Y282428D01*
X312684Y281351D01*
X312362Y280150D01*
Y278906D01*
X312684Y277704D01*
X313306Y276627D01*
X314186Y275747D01*
X315263Y275125D01*
X316465Y274803D01*
X317709D01*
X318910Y275125D01*
X319988Y275747D01*
X320867Y276627D01*
X321489Y277704D01*
X321811Y278906D01*
Y280150D01*
X321489Y281351D01*
X320867Y282428D01*
X319988Y283308D01*
X319094Y283824D01*
Y296988D01*
X318941Y297756D01*
X318506Y298407D01*
X318504Y298409D01*
Y302067D01*
X317952D01*
Y319647D01*
X344390D01*
Y318898D01*
X350886D01*
Y324409D01*
X344390D01*
Y323661D01*
X319390D01*
Y325590D01*
D02*
G37*
G36*
X311122D02*
X304626D01*
Y320079D01*
X305867D01*
Y317717D01*
X304626D01*
Y312205D01*
X311122D01*
Y317717D01*
X309881D01*
Y320079D01*
X311122D01*
Y325590D01*
D02*
G37*
G36*
X457319Y314453D02*
X451413D01*
Y311303D01*
X457319D01*
Y314453D01*
D02*
G37*
G36*
X452201Y336106D02*
X449232D01*
X446264D01*
Y333646D01*
X447225D01*
Y332185D01*
X447378Y331417D01*
X447813Y330766D01*
X448406Y330173D01*
Y319603D01*
X443508D01*
Y317460D01*
X434351D01*
X433583Y317307D01*
X432932Y316872D01*
X427715Y311655D01*
X427280Y311004D01*
X427127Y310236D01*
Y307890D01*
X425181D01*
Y305331D01*
X429134D01*
X433087D01*
Y307890D01*
X431141D01*
Y309405D01*
X435182Y313446D01*
X443508D01*
Y311303D01*
X449413D01*
Y315453D01*
X450413D01*
Y316453D01*
X457319D01*
Y319603D01*
X452421D01*
Y331004D01*
X452268Y331772D01*
X451833Y332423D01*
X451239Y333016D01*
Y333646D01*
X452201D01*
Y336106D01*
D02*
G37*
G36*
X433087Y303331D02*
X430134D01*
Y300772D01*
X433087D01*
Y303331D01*
D02*
G37*
G36*
X428134D02*
X425181D01*
Y300772D01*
X428134D01*
Y303331D01*
D02*
G37*
G36*
X475610Y340354D02*
X470098D01*
Y333858D01*
X470847D01*
Y329591D01*
X466317Y325061D01*
X465882Y324410D01*
X465729Y323642D01*
Y319390D01*
X461043D01*
Y311516D01*
X466497D01*
Y283824D01*
X465603Y283308D01*
X464723Y282428D01*
X464102Y281351D01*
X463779Y280150D01*
Y278906D01*
X464102Y277704D01*
X464723Y276627D01*
X465603Y275747D01*
X466680Y275125D01*
X467882Y274803D01*
X469126D01*
X470328Y275125D01*
X471405Y275747D01*
X472284Y276627D01*
X472906Y277704D01*
X473228Y278906D01*
Y280150D01*
X472906Y281351D01*
X472284Y282428D01*
X471405Y283308D01*
X470511Y283824D01*
Y311516D01*
X474429D01*
Y319390D01*
X469743D01*
Y322810D01*
X474274Y327341D01*
X474709Y327992D01*
X474861Y328760D01*
Y333858D01*
X475610D01*
Y340354D01*
D02*
G37*
G36*
X463228Y284252D02*
X453780D01*
Y274803D01*
X463228D01*
Y284252D01*
D02*
G37*
G36*
X439756D02*
X438512D01*
X437310Y283930D01*
X436233Y283308D01*
X435353Y282428D01*
X434731Y281351D01*
X434410Y280150D01*
Y278906D01*
X434731Y277704D01*
X435353Y276627D01*
X436233Y275747D01*
X437310Y275125D01*
X438512Y274803D01*
X439756D01*
X440957Y275125D01*
X442035Y275747D01*
X442914Y276627D01*
X443536Y277704D01*
X443858Y278906D01*
Y280150D01*
X443536Y281351D01*
X442914Y282428D01*
X442035Y283308D01*
X440957Y283930D01*
X439756Y284252D01*
D02*
G37*
G36*
X432874Y293504D02*
X425394D01*
Y286811D01*
X427127D01*
Y284252D01*
X424409D01*
Y274803D01*
X433858D01*
Y284252D01*
X431141D01*
Y286811D01*
X432874D01*
Y293504D01*
D02*
G37*
G36*
X311122Y309842D02*
X304626D01*
Y304331D01*
X305867D01*
Y302067D01*
X305118D01*
Y295571D01*
X305867D01*
Y284252D01*
X302362D01*
Y274803D01*
X311811D01*
Y284252D01*
X309881D01*
Y295571D01*
X310630D01*
Y302067D01*
X309881D01*
Y304331D01*
X311122D01*
Y309842D01*
D02*
G37*
G36*
X401535Y275394D02*
X392087D01*
Y265945D01*
X401535D01*
Y275394D01*
D02*
G37*
G36*
X387433D02*
X386189D01*
X384987Y275072D01*
X383910Y274450D01*
X383031Y273570D01*
X382409Y272493D01*
X382087Y271291D01*
Y270047D01*
X382409Y268846D01*
X383031Y267768D01*
X383910Y266889D01*
X384987Y266267D01*
X386189Y265945D01*
X387433D01*
X388635Y266267D01*
X389712Y266889D01*
X390592Y267768D01*
X391213Y268846D01*
X391535Y270047D01*
Y271291D01*
X391213Y272493D01*
X390592Y273570D01*
X389712Y274450D01*
X388635Y275072D01*
X387433Y275394D01*
D02*
G37*
G36*
X377433D02*
X376189D01*
X374988Y275072D01*
X373910Y274450D01*
X373030Y273570D01*
X372409Y272493D01*
X372087Y271291D01*
Y270047D01*
X372409Y268846D01*
X373030Y267768D01*
X373910Y266889D01*
X374988Y266267D01*
X376189Y265945D01*
X377433D01*
X378635Y266267D01*
X379712Y266889D01*
X380592Y267768D01*
X381213Y268846D01*
X381535Y270047D01*
Y271291D01*
X381213Y272493D01*
X380592Y273570D01*
X379712Y274450D01*
X378635Y275072D01*
X377433Y275394D01*
D02*
G37*
%LPD*%
D14*
X466949Y375492D02*
D03*
Y383366D02*
D03*
Y365650D02*
D03*
Y357776D02*
D03*
X369291Y362992D02*
D03*
Y370866D02*
D03*
X347638Y344488D02*
D03*
Y352362D02*
D03*
X307874Y330709D02*
D03*
Y322835D02*
D03*
Y314961D02*
D03*
Y307087D02*
D03*
X316142Y322835D02*
D03*
Y330709D02*
D03*
X347638Y321654D02*
D03*
Y329528D02*
D03*
X431890Y379921D02*
D03*
Y372047D02*
D03*
D15*
X474803Y392520D02*
D03*
X466929D02*
D03*
X449232Y337106D02*
D03*
X457106D02*
D03*
X449232Y347933D02*
D03*
X457106D02*
D03*
X464980Y337106D02*
D03*
X472854D02*
D03*
X307874Y298819D02*
D03*
X315748D02*
D03*
D16*
X467736Y315453D02*
D03*
X450413Y315453D02*
D03*
D17*
X429134Y290158D02*
D03*
Y304331D02*
D03*
D32*
X355512Y335827D02*
X360630Y340945D01*
X346601Y335827D02*
X355512D01*
X347638Y329528D02*
Y335827D01*
X338189D02*
X347638D01*
Y338189D01*
Y338189D02*
Y344488D01*
X360630Y340945D02*
Y408615D01*
X376599Y400732D02*
X386599Y390732D01*
X421227Y388189D02*
X421654D01*
X386599Y390732D02*
X418685D01*
X421227Y388189D01*
X467736Y323642D02*
X472854Y328760D01*
Y337106D01*
X467736Y315453D02*
Y323642D01*
X468504Y279528D02*
Y314685D01*
X467736Y315453D02*
X468504Y314685D01*
X409842Y372047D02*
X431890D01*
X387008Y365197D02*
X402992D01*
X409842Y372047D01*
X360630Y408615D02*
X365795Y413779D01*
X447852D01*
X454042Y407589D01*
X320184D02*
X333461Y420866D01*
X467717D01*
X474803Y413779D01*
X369291Y357874D02*
Y362992D01*
X386811Y348425D02*
X386910Y348524D01*
Y365098D02*
X387008Y365197D01*
X386910Y348524D02*
Y365098D01*
X431890Y372047D02*
X445787D01*
X446201Y371634D01*
X443307Y379921D02*
X463495Y400109D01*
X431890Y379921D02*
X443307D01*
X463495Y407199D02*
X463884Y407589D01*
X463495Y400109D02*
Y407199D01*
X474803Y392520D02*
Y413779D01*
X466929Y392520D02*
X466939Y392510D01*
Y383376D02*
X466949Y383366D01*
X466939Y383376D02*
Y392510D01*
X317815Y321654D02*
X347638D01*
X316634Y322835D02*
X317815Y321654D01*
X316142Y322835D02*
X316634D01*
X315945Y299016D02*
Y322638D01*
X316142Y322835D01*
X315748Y298819D02*
X315945Y299016D01*
X315748Y298327D02*
X317087Y296988D01*
X315748Y298327D02*
Y298819D01*
X317087Y279528D02*
Y296988D01*
X307874Y298819D02*
Y307087D01*
Y280315D02*
Y298819D01*
X307087Y279528D02*
X307874Y280315D01*
Y314961D02*
Y322835D01*
X307933Y330768D02*
X328130D01*
X307874Y330709D02*
X307933Y330768D01*
X328130D02*
X328189Y330827D01*
X434351Y315453D02*
X450413D01*
X429134Y310236D02*
X434351Y315453D01*
X429134Y304331D02*
Y310236D01*
Y279528D02*
Y290158D01*
X449232Y332185D02*
Y337106D01*
X450413Y315453D02*
Y331004D01*
X449232Y332185D02*
X450413Y331004D01*
X446201Y360142D02*
Y361634D01*
Y360142D02*
X449232Y357111D01*
X456201Y366634D02*
X456693Y366142D01*
X457106Y337106D02*
Y347933D01*
X449232D02*
Y357111D01*
X466949Y365650D02*
Y375492D01*
X457106Y352854D02*
X462028Y357776D01*
X456693Y366142D02*
X466457D01*
X462028Y357776D02*
X466949D01*
X466457Y366142D02*
X466949Y365650D01*
X457106Y337106D02*
X464980D01*
X457106Y347933D02*
Y352854D01*
D33*
X387008Y365197D02*
D03*
X444199Y407589D02*
D03*
X454042D02*
D03*
X463884D02*
D03*
X330026D02*
D03*
X320184D02*
D03*
X310341D02*
D03*
X386811Y270669D02*
D03*
X376811D02*
D03*
X468504Y279528D02*
D03*
X317087D02*
D03*
X439134D02*
D03*
D34*
X387008Y375197D02*
D03*
X396811Y270669D02*
D03*
D35*
X386599Y390732D02*
D03*
X376599Y400732D02*
D03*
X396599D02*
D03*
D36*
X446201Y371634D02*
D03*
X328189Y340827D02*
D03*
D37*
X446201Y361634D02*
D03*
X456201Y366634D02*
D03*
X338189Y335827D02*
D03*
X328189Y330827D02*
D03*
D38*
X472743Y437117D02*
D03*
X435341D02*
D03*
X301483D02*
D03*
X338884D02*
D03*
D39*
X377756Y348425D02*
D03*
X386811D02*
D03*
D40*
X395866D02*
D03*
D41*
X458504Y279528D02*
D03*
X307087D02*
D03*
X429134D02*
D03*
D42*
X421654Y388189D02*
D03*
X369291Y357874D02*
D03*
M02*
